<svg width="24" height="24" viewBox="0 0 24 24" fill="none" xmlns="http://www.w3.org/2000/svg">
<mask id="mask0_61_16204" style="mask-type:alpha" maskUnits="userSpaceOnUse" x="0" y="0" width="24" height="24">
<rect width="24" height="24" fill="#D9D9D9"/>
</mask>
<g mask="url(#mask0_61_16204)">
<path d="M5.30775 20.498C4.80258 20.498 4.375 20.323 4.025 19.973C3.675 19.623 3.5 19.1955 3.5 18.6903V5.3058C3.5 4.80063 3.675 4.37305 4.025 4.02305C4.375 3.67305 4.80258 3.49805 5.30775 3.49805H18.6923C19.1974 3.49805 19.625 3.67305 19.975 4.02305C20.325 4.37305 20.5 4.80063 20.5 5.3058V18.6903C20.5 19.1955 20.325 19.623 19.975 19.973C19.625 20.323 19.1974 20.498 18.6923 20.498H5.30775ZM5 5.3058V18.6903C5 18.7673 5.03208 18.8378 5.09625 18.9018C5.16025 18.966 5.23075 18.998 5.30775 18.998H18.6923C18.7692 18.998 18.8398 18.966 18.9038 18.9018C18.9679 18.8378 19 18.7673 19 18.6903V5.3058C19 5.2288 18.9679 5.1583 18.9038 5.0943C18.8398 5.03013 18.7692 4.99805 18.6923 4.99805H16.75V11.5558L14.5 10.2095L12.25 11.5558V4.99805H5.30775C5.23075 4.99805 5.16025 5.03013 5.09625 5.0943C5.03208 5.1583 5 5.2288 5 5.3058Z" fill="#407CF1"/>
</g>
</svg>
