<svg width="50" height="50" viewBox="0 0 50 50" fill="none" xmlns="http://www.w3.org/2000/svg">
<circle cx="25" cy="25" r="25" fill="#EEF5FF"/>
<mask id="mask0_64_6441" style="mask-type:alpha" maskUnits="userSpaceOnUse" x="8" y="8" width="34" height="34">
<rect x="8.33301" y="8.33301" width="33.3333" height="33.3333" fill="#D9D9D9"/>
</mask>
<g mask="url(#mask0_64_6441)">
<path d="M23.958 33.8675H26.0413V27.7084L28.6108 30.2779L30.0743 28.7928L24.9997 23.7182L19.925 28.7928L21.4101 30.2564L23.958 27.7084V33.8675ZM17.0938 38.1946C16.3922 38.1946 15.7983 37.9515 15.3122 37.4654C14.8261 36.9793 14.583 36.3854 14.583 35.6838V14.3164C14.583 13.6148 14.8261 13.0209 15.3122 12.5348C15.7983 12.0487 16.3922 11.8057 17.0938 11.8057H28.1247L35.4163 19.0973V35.6838C35.4163 36.3854 35.1733 36.9793 34.6872 37.4654C34.2011 37.9515 33.6072 38.1946 32.9056 38.1946H17.0938ZM27.083 20.139V13.889H17.0938C16.9868 13.889 16.8889 13.9336 16.8 14.0227C16.7109 14.1116 16.6663 14.2095 16.6663 14.3164V35.6838C16.6663 35.7907 16.7109 35.8887 16.8 35.9775C16.8889 36.0667 16.9868 36.1112 17.0938 36.1112H32.9056C33.0125 36.1112 33.1104 36.0667 33.1993 35.9775C33.2884 35.8887 33.333 35.7907 33.333 35.6838V20.139H27.083Z" fill="#407CF1"/>
</g>
</svg>
