<svg width="20" height="21" viewBox="0 0 20 21" fill="none" xmlns="http://www.w3.org/2000/svg">
<mask id="mask0_38_7976" style="mask-type:alpha" maskUnits="userSpaceOnUse" x="0" y="0" width="20" height="21">
<rect y="0.5" width="20" height="20" fill="#D9D9D9"/>
</mask>
<g mask="url(#mask0_38_7976)">
<path d="M9.99984 18.8337C8.86095 18.8337 7.78456 18.6149 6.77067 18.1774C5.75678 17.7399 4.87136 17.1427 4.11442 16.3857C3.35748 15.6288 2.76025 14.7434 2.32275 13.7295C1.88525 12.7156 1.6665 11.6392 1.6665 10.5003C1.6665 9.34755 1.88525 8.26421 2.32275 7.25033C2.76025 6.23644 3.35748 5.35449 4.11442 4.60449C4.87136 3.85449 5.75678 3.26074 6.77067 2.82324C7.78456 2.38574 8.86095 2.16699 9.99984 2.16699C11.1526 2.16699 12.2359 2.38574 13.2498 2.82324C14.2637 3.26074 15.1457 3.85449 15.8957 4.60449C16.6457 5.35449 17.2394 6.23644 17.6769 7.25033C18.1144 8.26421 18.3332 9.34755 18.3332 10.5003C18.3332 11.6392 18.1144 12.7156 17.6769 13.7295C17.2394 14.7434 16.6457 15.6288 15.8957 16.3857C15.1457 17.1427 14.2637 17.7399 13.2498 18.1774C12.2359 18.6149 11.1526 18.8337 9.99984 18.8337ZM9.99984 3.83366C8.45817 3.83366 7.09706 4.29546 5.9165 5.21908C4.73595 6.14269 3.95123 7.31977 3.56234 8.75033C3.84012 8.68088 4.12831 8.54546 4.42692 8.34408C4.72553 8.14269 5.06928 7.6531 5.45817 6.87533C5.6665 6.44477 5.97206 6.10796 6.37484 5.86491C6.77762 5.62185 7.22206 5.50033 7.70817 5.50033H12.2915C12.7776 5.50033 13.2221 5.62185 13.6248 5.86491C14.0276 6.10796 14.3332 6.44477 14.5415 6.87533C14.9304 7.66699 15.2811 8.16005 15.5936 8.35449C15.9061 8.54894 16.1873 8.68088 16.4373 8.75033C16.0484 7.31977 15.2672 6.14269 14.0936 5.21908C12.92 4.29546 11.5554 3.83366 9.99984 3.83366ZM9.99984 17.167C11.8609 17.167 13.4408 16.5142 14.7394 15.2087C16.038 13.9031 16.6804 12.3198 16.6665 10.4587C15.6804 10.3614 14.9234 10.0524 14.3957 9.53158C13.8679 9.01074 13.4165 8.37533 13.0415 7.62533C12.9721 7.47255 12.8714 7.35796 12.7394 7.28158C12.6075 7.20519 12.4651 7.16699 12.3123 7.16699H7.70817C7.5415 7.16699 7.3922 7.20519 7.26025 7.28158C7.12831 7.35796 7.02761 7.47255 6.95817 7.62533C6.58317 8.38921 6.12484 9.03158 5.58317 9.55241C5.0415 10.0732 4.2915 10.3823 3.33317 10.4795C3.33317 12.3406 3.98248 13.9205 5.28109 15.2191C6.5797 16.5177 8.15262 17.167 9.99984 17.167ZM7.49984 12.3753C7.20817 12.3753 6.96164 12.2746 6.76025 12.0732C6.55887 11.8719 6.45817 11.6253 6.45817 11.3337C6.45817 11.042 6.55887 10.7955 6.76025 10.5941C6.96164 10.3927 7.20817 10.292 7.49984 10.292C7.7915 10.292 8.03803 10.3927 8.23942 10.5941C8.44081 10.7955 8.5415 11.042 8.5415 11.3337C8.5415 11.6253 8.44081 11.8719 8.23942 12.0732C8.03803 12.2746 7.7915 12.3753 7.49984 12.3753ZM12.4998 12.3753C12.2082 12.3753 11.9616 12.2746 11.7603 12.0732C11.5589 11.8719 11.4582 11.6253 11.4582 11.3337C11.4582 11.042 11.5589 10.7955 11.7603 10.5941C11.9616 10.3927 12.2082 10.292 12.4998 10.292C12.7915 10.292 13.038 10.3927 13.2394 10.5941C13.4408 10.7955 13.5415 11.042 13.5415 11.3337C13.5415 11.6253 13.4408 11.8719 13.2394 12.0732C13.038 12.2746 12.7915 12.3753 12.4998 12.3753Z" fill="#192A48"/>
</g>
</svg>
