<svg width="200" height="143" viewBox="0 0 200 143" fill="none" xmlns="http://www.w3.org/2000/svg">
<path d="M30.3755 12.7397H22.5898V142.38H30.3755V12.7397Z" fill="#263238"/>
<path d="M34.3474 7.84357C34.3474 9.39489 33.8874 10.9114 33.0255 12.2013C32.1636 13.4911 30.9386 14.4965 29.5054 15.0901C28.0722 15.6838 26.4951 15.8391 24.9736 15.5365C23.4521 15.2338 22.0545 14.4868 20.9575 13.3899C19.8606 12.2929 19.1135 10.8953 18.8109 9.37379C18.5082 7.85228 18.6635 6.27522 19.2572 4.84199C19.8509 3.40876 20.8562 2.18373 22.1461 1.32187C23.436 0.460003 24.9525 0 26.5038 0C28.5841 0 30.5791 0.826367 32.0501 2.29733C33.521 3.76829 34.3474 5.76332 34.3474 7.84357Z" fill="#455A64"/>
<path d="M184.973 12.7397H177.188V142.38H184.973V12.7397Z" fill="#263238"/>
<path d="M188.945 7.84357C188.945 9.39489 188.485 10.9114 187.623 12.2013C186.761 13.4911 185.536 14.4965 184.103 15.0901C182.67 15.6838 181.093 15.8391 179.571 15.5365C178.05 15.2338 176.652 14.4868 175.555 13.3899C174.458 12.2929 173.711 10.8953 173.409 9.37379C173.106 7.85228 173.261 6.27522 173.855 4.84199C174.449 3.40876 175.454 2.18373 176.744 1.32187C178.034 0.460003 179.55 0 181.101 0C183.182 0 185.177 0.826367 186.648 2.29733C188.119 3.76829 188.945 5.76332 188.945 7.84357Z" fill="#455A64"/>
<path d="M199.699 26.5361H0.382812V62.192H199.699V26.5361Z" fill="#FF8B00"/>
<path d="M22.939 26.5361L22.5909 27.1279L2.11164 62.2036H0.382812V26.5361H22.939Z" fill="#F5F5F5"/>
<path d="M73.321 26.5361L52.4705 62.2036H25.2383L33.5228 48.0364L46.0772 26.5361H73.321Z" fill="#F5F5F5"/>
<path d="M123.676 26.5361L102.826 62.2036H75.5938L96.4443 26.5361H123.676Z" fill="#F5F5F5"/>
<path d="M174.032 26.5479L153.181 62.2037H125.949L146.8 26.5479H174.032Z" fill="#F5F5F5"/>
<path d="M199.7 26.5479V62.2037H176.309L197.159 26.5479H199.7Z" fill="#F5F5F5"/>
<path d="M199.699 81.627H0.382812V117.283H199.699V81.627Z" fill="#FF8B00"/>
<path d="M22.939 81.627L22.5909 82.2187L2.11164 117.294H0.382812V81.627H22.939Z" fill="#F5F5F5"/>
<path d="M73.321 81.627L52.4705 117.294H25.2383L33.5228 103.127L46.0772 81.627H73.321Z" fill="#F5F5F5"/>
<path d="M123.676 81.627L102.826 117.294H75.5938L96.4443 81.627H123.676Z" fill="#F5F5F5"/>
<path d="M174.032 81.6382L153.181 117.294H125.949L146.8 81.6382H174.032Z" fill="#F5F5F5"/>
<path d="M199.7 81.6382V117.294H176.309L197.159 81.6382H199.7Z" fill="#F5F5F5"/>
<path d="M199.734 62.2031C199.734 62.2031 199.734 61.9827 199.734 61.5882C199.734 61.1937 199.734 60.5671 199.734 59.8013C199.734 58.2117 199.734 55.8911 199.676 52.8396C199.676 46.7596 199.618 37.8717 199.56 26.5008L199.768 26.7097L0.464147 26.8953L0.858644 26.5008V62.1683L0.464147 61.7738L142.357 61.9478L184.441 62.0639H195.8H198.759H199.78H198.805H195.905L184.627 62.1219L142.635 62.2263L0.382918 62.5396H0V62.1567C0 50.7046 0 38.7071 0 26.4892V26.0947H0.406111L199.71 26.2804H199.919V26.5705C199.919 37.9994 199.826 46.922 199.803 53.0252C199.803 56.0303 199.803 58.3277 199.803 59.9058C199.803 60.6715 199.803 61.2401 199.803 61.6578C199.803 62.0755 199.734 62.2031 199.734 62.2031Z" fill="#263238"/>
<path d="M199.734 117.294C199.734 117.294 199.734 117.074 199.734 116.679C199.734 116.285 199.734 115.67 199.734 114.893C199.734 113.303 199.734 110.982 199.676 107.931C199.676 101.851 199.618 92.9746 199.56 81.5921L199.769 81.801L0.464949 81.9866L0.859446 81.5921V117.26L0.464949 116.865L142.358 117.039L184.442 117.155H195.801H198.76C199.433 117.155 199.781 117.155 199.781 117.155H198.806H195.905H184.627L142.636 117.26L0.464949 117.434H0.0820312V117.051C0.0820312 105.599 0.0820312 93.6012 0.0820312 81.3833V80.9888H0.488142L199.792 81.1744H200.001V81.3833C200.001 92.8122 199.908 101.746 199.885 107.838C199.885 110.843 199.885 113.152 199.885 114.719C199.885 115.484 199.885 116.065 199.885 116.471C199.885 116.877 199.734 117.294 199.734 117.294Z" fill="#263238"/>
</svg>
