<svg width="460" height="309" viewBox="0 0 460 309" fill="none" xmlns="http://www.w3.org/2000/svg">
<path d="M60.5037 226.258C65.7679 222.934 67.6868 218.632 68.557 212.462C68.9719 209.368 68.7179 206.22 67.8122 203.233C66.9065 200.245 65.3702 197.486 63.307 195.143C59.8545 191.262 54.9754 188.602 52.4788 184.051C49.8253 179.193 50.2176 172.766 46.4014 168.764C43.7763 166.018 39.796 165.126 36.5433 163.158C33.8898 161.553 31.7498 159.242 29.3459 157.28C26.942 155.318 24.0531 153.656 20.9502 153.713C16.2779 153.849 12.4331 158.257 11.998 162.915C11.5629 167.573 13.9596 172.188 17.3836 175.355C19.8659 177.667 22.9688 179.493 24.5167 182.489C27.4414 188.152 23.7606 195.664 26.9278 201.192C29.2389 205.236 34.7743 207.376 35.3735 211.999C35.5875 213.696 35.0311 215.394 34.9669 217.106C34.7529 222.456 39.5535 226.993 44.775 228.184C49.9965 229.375 55.4391 227.977 60.468 226.208" fill="#F5F5F5"/>
<path d="M30.1807 173.009C30.3328 173.243 30.5098 173.461 30.7085 173.658L32.3206 175.441C33.0339 176.197 33.8971 177.139 34.8244 178.294C35.7517 179.45 36.893 180.691 37.9844 182.203L39.7463 184.529C40.3597 185.342 40.9232 186.234 41.551 187.133C42.8207 188.909 44.0048 190.927 45.2959 193.025C47.9606 197.642 50.2988 202.44 52.2935 207.384C54.2179 212.36 55.7887 217.466 56.9943 222.663C57.4865 225.074 58.0001 227.357 58.2854 229.525C58.4423 230.602 58.6349 231.665 58.7491 232.657C58.8632 233.648 58.9488 234.632 59.0487 235.56C59.2841 237.407 59.3126 239.126 59.4053 240.553C59.498 241.98 59.5266 243.306 59.5266 244.348C59.5266 245.389 59.5266 246.131 59.5622 246.745C59.5523 247.026 59.5714 247.308 59.6193 247.586C59.6691 247.311 59.6929 247.032 59.6906 246.752C59.6906 246.138 59.7406 245.325 59.7762 244.348C59.8119 243.371 59.8404 242.022 59.7762 240.539C59.712 239.055 59.7192 237.364 59.5123 235.503C59.4267 234.575 59.3411 233.598 59.2484 232.585C59.1557 231.572 58.9702 230.517 58.8204 229.432C58.5565 227.242 58.0643 224.946 57.5792 222.52C56.4021 217.283 54.838 212.14 52.8999 207.134C50.8979 202.156 48.5304 197.332 45.8166 192.704C44.5041 190.606 43.2986 188.588 42.0003 186.812C41.3655 185.913 40.7806 185.021 40.16 184.215L38.3553 181.904C37.2354 180.406 36.0798 179.165 35.1097 178.038C34.1396 176.911 33.2622 175.99 32.5203 175.256L30.8155 173.558C30.6224 173.355 30.4098 173.171 30.1807 173.009Z" fill="#E0E0E0"/>
<path d="M456.702 106.256C456.702 106.256 449.997 101.819 441.829 117.862C433.662 133.904 430.559 143.12 430.559 143.12C430.559 143.12 428.419 146.48 426.086 144.283C423.754 142.086 420.615 135.852 416.692 136.979C412.626 138.141 411.285 142.685 412.062 149.355C412.84 156.024 414.003 170.712 414.103 172.038C414.202 173.365 413.453 175.263 411.642 174.014C409.83 172.766 399.401 161.175 394.194 166.439C388.987 171.703 394.194 189.978 394.729 191.954C395.264 193.93 394.864 194.808 393.916 195.307C392.967 195.806 389.828 191.576 386.725 188.395C383.622 185.213 379.471 182.068 376.739 185.363C374.007 188.659 373.108 202.34 386.126 224.596L392.839 234.497L404.829 233.833C430.416 230.844 440.802 221.899 441.779 217.719C442.757 213.539 437.742 212.113 433.334 211.556C428.925 211 423.661 211.043 423.483 209.98C423.304 208.917 423.754 208.097 425.673 207.312C427.591 206.527 445.296 199.708 446.359 192.375C447.422 185.042 431.886 183.701 429.803 183.002C427.72 182.303 428.797 180.555 429.903 179.849C431.008 179.143 443.456 171.218 449.233 167.816C455.011 164.413 457.85 160.611 456.331 156.666C454.862 152.857 447.985 154.084 444.839 153.563C441.694 153.043 443.078 149.284 443.078 149.284C443.078 149.284 448.599 141.237 456.474 125.031C464.349 108.824 456.574 106.135 456.574 106.135" fill="#EBEBEB"/>
<path d="M449.362 120.607L449.212 120.95L448.741 121.956L446.908 125.793C445.31 129.132 442.971 133.939 440.046 139.867C434.211 151.73 426.015 168.05 416.906 186.047C407.797 204.044 399.558 220.344 393.666 232.178L386.697 246.194L384.8 250.003L384.3 250.988C384.245 251.103 384.183 251.215 384.115 251.323L384.265 250.974L384.735 249.975L386.569 246.13C388.166 242.799 390.506 237.991 393.431 232.056C399.266 220.194 407.462 203.873 416.578 185.876C425.694 167.879 433.919 151.587 439.811 139.753L446.758 125.736L448.656 121.92L449.155 120.936C449.291 120.714 449.362 120.607 449.362 120.607Z" fill="#E0E0E0"/>
<path d="M420.765 145.902C420.9 146.151 421.005 146.414 421.079 146.687C421.257 147.215 421.486 147.985 421.757 148.941C422.299 150.853 422.976 153.513 423.675 156.467L425.437 164.021C425.651 164.927 425.837 165.69 425.987 166.303C426.075 166.579 426.13 166.864 426.151 167.152C426.022 166.894 425.919 166.624 425.844 166.346C425.673 165.818 425.445 165.041 425.181 164.085C424.66 162.166 424.011 159.498 423.312 156.552C422.613 153.606 421.985 151.024 421.5 149.012L420.943 146.73C420.856 146.461 420.797 146.183 420.765 145.902Z" fill="#E0E0E0"/>
<path d="M427.234 167.373C427.234 167.273 432.627 165.633 439.361 163.7C446.095 161.767 451.544 160.283 451.573 160.383C451.601 160.483 446.18 162.123 439.446 164.056C432.713 165.989 427.263 167.487 427.234 167.373Z" fill="#E0E0E0"/>
<path d="M411.999 194.393C412.289 194.347 412.583 194.333 412.876 194.35H415.28C417.306 194.35 420.102 194.35 423.191 194.222C426.279 194.094 429.068 193.915 431.087 193.751L433.484 193.566C433.778 193.531 434.074 193.531 434.368 193.566C434.086 193.656 433.794 193.714 433.498 193.737C432.934 193.823 432.121 193.93 431.115 194.044C429.097 194.272 426.301 194.514 423.205 194.621C420.109 194.728 417.306 194.707 415.273 194.621C414.26 194.586 413.439 194.543 412.876 194.5C412.58 194.5 412.286 194.464 411.999 194.393Z" fill="#E0E0E0"/>
<path d="M401.862 176.247C402.051 176.446 402.209 176.672 402.333 176.918L403.488 178.808C404.451 180.413 405.764 182.646 407.19 185.128C408.617 187.61 409.887 189.857 410.793 191.498L411.841 193.452C411.983 193.677 412.1 193.916 412.191 194.166C412.004 193.965 411.846 193.739 411.72 193.495L410.564 191.626C409.601 190.021 408.289 187.789 406.862 185.313C405.436 182.838 404.166 180.577 403.26 178.936L402.211 176.989C402.069 176.755 401.952 176.506 401.862 176.247Z" fill="#E0E0E0"/>
<path d="M385.413 198.374C385.631 198.647 385.829 198.935 386.005 199.237C386.39 199.872 386.889 200.664 387.495 201.662C388.737 203.71 390.442 206.563 392.296 209.723C394.151 212.883 395.813 215.75 397.004 217.833C397.568 218.839 398.031 219.674 398.395 220.316C398.578 220.612 398.733 220.925 398.859 221.25C398.636 220.981 398.437 220.692 398.267 220.387L396.776 217.969C395.535 215.915 393.83 213.068 391.975 209.908C390.121 206.748 388.458 203.881 387.267 201.791L385.876 199.316C385.692 199.017 385.537 198.702 385.413 198.374Z" fill="#E0E0E0"/>
<path d="M398.666 220.615C399.034 220.556 399.406 220.53 399.779 220.537L402.825 220.437C405.393 220.351 408.938 220.216 412.854 219.959C416.77 219.702 420.308 219.388 422.84 219.139L425.872 218.839C426.243 218.784 426.617 218.763 426.992 218.775C426.633 218.878 426.265 218.947 425.893 218.982C425.18 219.096 424.146 219.238 422.869 219.395C420.315 219.716 416.777 220.109 412.882 220.33C408.988 220.551 405.407 220.679 402.839 220.701C401.548 220.701 400.506 220.701 399.786 220.701C399.411 220.709 399.036 220.68 398.666 220.615Z" fill="#E0E0E0"/>
<path d="M456.317 308.732C456.317 308.839 354.155 308.925 228.169 308.925C102.183 308.925 0 308.839 0 308.732C0 308.625 102.14 308.547 228.169 308.547C354.198 308.547 456.317 308.611 456.317 308.732Z" fill="#263238"/>
<path d="M21.0002 258.985C22.3232 259.087 23.6118 259.455 24.7887 260.068C25.9655 260.681 27.0062 261.526 27.848 262.552C29.5233 264.618 30.702 267.041 31.2934 269.635C32.5702 274.628 31.7071 280.442 30.2519 285.328C24.9092 283.366 21.6493 277.617 20.1799 274.628C17.8616 269.856 16.5633 259.82 21.0002 258.971" fill="#407CF1"/>
<path d="M37.9202 291.441C37.1247 290.186 36.676 288.743 36.6196 287.258C36.5632 285.773 36.9012 284.3 37.5992 282.988C38.3159 281.69 39.2843 280.547 40.4479 279.627C41.6115 278.708 42.9468 278.029 44.3757 277.631C45.6882 277.239 47.229 277.082 48.3417 277.853C48.8518 278.243 49.247 278.764 49.4855 279.36C49.7241 279.957 49.7972 280.606 49.697 281.241C49.4887 282.51 48.9471 283.702 48.1277 284.693C45.4885 288.203 42.2928 291.113 37.9202 291.441Z" fill="#407CF1"/>
<path d="M38.3622 307.991C38.2601 307.654 38.1838 307.311 38.134 306.963C37.9984 306.25 37.8201 305.28 37.6061 304.11C37.2066 301.735 36.5646 298.354 37.0996 294.63C37.491 291.446 38.7219 288.423 40.6662 285.871C41.2661 285.112 41.9559 284.429 42.7206 283.838C42.9234 283.67 43.1379 283.518 43.3626 283.381C43.5147 283.281 43.5932 283.238 43.598 283.253C42.598 284.086 41.6851 285.018 40.8731 286.035C39.0202 288.582 37.8401 291.555 37.442 294.68C36.907 298.332 37.4991 301.685 37.8344 304.074C38.0198 305.273 38.1625 306.214 38.2481 306.928C38.3256 307.277 38.3639 307.633 38.3622 307.991Z" fill="#263238"/>
<path d="M22.6624 266.524C22.7485 266.654 22.8203 266.793 22.8764 266.938C23.019 267.245 23.1973 267.651 23.4185 268.137C23.8821 269.178 24.5384 270.697 25.3302 272.58C26.9137 276.34 29.0252 281.575 31.2293 287.403C33.4335 293.231 35.3095 298.56 36.6077 302.426C37.264 304.366 37.7776 305.935 38.12 307.027L38.5052 308.282C38.5599 308.424 38.5959 308.573 38.6121 308.724C38.5392 308.59 38.4794 308.449 38.4338 308.304C38.3126 307.99 38.1628 307.59 37.9773 307.069C37.585 305.95 37.0357 304.409 36.3652 302.511C34.9956 298.667 33.0839 293.359 30.8798 287.532C28.6756 281.704 26.6141 276.511 25.0876 272.687L23.2829 268.194C23.0903 267.694 22.9334 267.288 22.805 266.974C22.7427 266.829 22.6949 266.679 22.6624 266.524Z" fill="#263238"/>
<path d="M32.0923 296.99C30.506 294.291 28.2987 292.01 25.6538 290.335C23.0088 288.66 20.0024 287.641 16.8843 287.361C15.3008 287.232 13.3962 287.482 12.6757 288.894C11.9553 290.307 12.8897 292.012 13.9597 293.174C16.235 295.597 19.1767 297.291 22.4139 298.044C25.651 298.797 29.0386 298.574 32.1493 297.404" fill="#407CF1"/>
<path d="M19.267 291.62C19.5983 291.606 19.9302 291.623 20.2585 291.67C20.6462 291.694 21.0321 291.741 21.414 291.812C21.9232 291.885 22.4281 291.985 22.9263 292.112C23.5367 292.25 24.1391 292.422 24.731 292.626C25.4127 292.851 26.0818 293.113 26.7354 293.41C28.2355 294.098 29.6523 294.955 30.9582 295.964C32.2491 296.991 33.4171 298.164 34.4392 299.459C34.8794 300.03 35.2867 300.625 35.659 301.242C36.0041 301.778 36.3185 302.333 36.6006 302.904C36.833 303.368 37.0379 303.844 37.214 304.331C37.3702 304.687 37.499 305.054 37.5992 305.43C37.7169 305.741 37.8006 306.064 37.8489 306.393C37.7704 306.393 37.3995 305.044 36.3652 303.033C36.0831 302.481 35.7711 301.946 35.4307 301.428C35.0509 300.832 34.6414 300.256 34.2038 299.702C33.1874 298.439 32.0343 297.293 30.7656 296.285C29.4825 295.293 28.0953 294.444 26.6284 293.753C25.9784 293.438 25.3117 293.159 24.6311 292.918C24.0105 292.676 23.4113 292.519 22.8621 292.362C20.6722 291.791 19.2527 291.705 19.267 291.62Z" fill="#263238"/>
<path d="M380.498 31.7217H66.8878C64.2922 31.7217 61.8029 32.7528 59.9675 34.5881C58.1322 36.4235 57.1011 38.9128 57.1011 41.5084V263.022C57.1011 265.618 58.1322 268.107 59.9675 269.943C61.8029 271.778 64.2922 272.809 66.8878 272.809H187.253C187.253 272.809 194.907 296.484 171.175 308.732H283.715C283.715 308.732 256.923 299.552 263.806 272.809H380.498C383.094 272.809 385.583 271.778 387.418 269.943C389.254 268.107 390.285 265.618 390.285 263.022V41.5084C390.285 38.9128 389.254 36.4235 387.418 34.5881C385.583 32.7528 383.094 31.7217 380.498 31.7217Z" fill="#263238"/>
<path d="M227.877 249.513C232.157 255.611 225.466 262.288 219.367 258.022C219.164 257.878 218.988 257.7 218.846 257.495C214.566 251.403 221.257 244.733 227.356 248.992C227.56 249.132 227.737 249.308 227.877 249.513Z" fill="#455A64"/>
<path d="M380.227 45.0039H66.5098C65.2216 45.0039 64.1772 46.0482 64.1772 47.3365V231.523C64.1772 232.811 65.2216 233.855 66.5098 233.855H380.227C381.515 233.855 382.56 232.811 382.56 231.523V47.3365C382.56 46.0482 381.515 45.0039 380.227 45.0039Z" fill="#E0E0E0"/>
<path d="M382.56 58.8359H64.1772V233.849H382.56V58.8359Z" fill="white"/>
<path d="M90.2847 52.2943C90.2861 52.7986 90.1378 53.2919 89.8585 53.7118C89.5793 54.1316 89.1816 54.4591 88.716 54.6528C88.2504 54.8464 87.7378 54.8974 87.2431 54.7994C86.7485 54.7014 86.2941 54.4587 85.9375 54.1021C85.581 53.7455 85.3383 53.2911 85.2402 52.7965C85.1422 52.3018 85.1932 51.7892 85.3869 51.3236C85.5805 50.858 85.908 50.4604 86.3279 50.1811C86.7477 49.9018 87.2411 49.7535 87.7453 49.7549C88.4188 49.7549 89.0647 50.0224 89.541 50.4987C90.0172 50.9749 90.2847 51.6208 90.2847 52.2943Z" fill="#455A64"/>
<path d="M74.877 52.2943C74.8784 52.7983 74.7303 53.2913 74.4513 53.711C74.1724 54.1307 73.7751 54.4583 73.3099 54.6521C72.8448 54.8459 72.3325 54.8974 71.8381 54.7999C71.3436 54.7025 70.8892 54.4605 70.5323 54.1046C70.1755 53.7488 69.9322 53.2951 69.8334 52.8009C69.7346 52.3067 69.7846 51.7943 69.9771 51.3286C70.1696 50.8628 70.496 50.4647 70.915 50.1846C71.3339 49.9044 71.8265 49.7549 72.3305 49.7549C72.6646 49.754 72.9955 49.8189 73.3045 49.9461C73.6134 50.0733 73.8942 50.2602 74.1307 50.4961C74.3673 50.732 74.555 51.0123 74.683 51.3209C74.8111 51.6294 74.877 51.9602 74.877 52.2943Z" fill="#455A64"/>
<path d="M82.2527 52.2943C82.2542 52.7983 82.106 53.2913 81.8271 53.711C81.5481 54.1307 81.1509 54.4583 80.6857 54.6521C80.2205 54.8459 79.7082 54.8974 79.2138 54.7999C78.7193 54.7025 78.2649 54.4605 77.9081 54.1046C77.5512 53.7488 77.308 53.2951 77.2091 52.8009C77.1103 52.3067 77.1603 51.7943 77.3528 51.3286C77.5454 50.8628 77.8717 50.4647 78.2907 50.1846C78.7096 49.9044 79.2022 49.7549 79.7062 49.7549C80.0403 49.754 80.3713 49.8189 80.6802 49.9461C80.9891 50.0733 81.2699 50.2602 81.5065 50.4961C81.743 50.732 81.9307 51.0123 82.0588 51.3209C82.1868 51.6294 82.2528 51.9602 82.2527 52.2943Z" fill="#455A64"/>
<path d="M372.659 69.3848H288.815V209.466H372.659V69.3848Z" fill="#F5F5F5"/>
<path d="M311.057 151.873L311.955 153.692L313.967 153.992L312.512 155.404L312.854 157.408L311.057 156.46L309.259 157.408L309.608 155.404L308.153 153.992L310.158 153.692L311.057 151.873Z" fill="#407CF1"/>
<path d="M321.043 151.873L321.942 153.692L323.954 153.992L322.498 155.404L322.841 157.408L321.043 156.46L319.246 157.408L319.588 155.404L318.133 153.992L320.144 153.692L321.043 151.873Z" fill="#407CF1"/>
<path d="M331.022 151.873L331.921 153.692L333.933 153.992L332.478 155.404L332.82 157.408L331.022 156.46L329.232 157.408L329.574 155.404L328.119 153.992L330.124 153.692L331.022 151.873Z" fill="#407CF1"/>
<path d="M341.009 151.873L341.908 153.692L343.919 153.992L342.464 155.404L342.806 157.408L341.009 156.46L339.211 157.408L339.554 155.404L338.098 153.992L340.11 153.692L341.009 151.873Z" fill="#407CF1"/>
<path d="M350.988 151.873L351.887 153.692L353.899 153.992L352.443 155.404L352.786 157.408L350.988 156.46L349.198 157.408L349.54 155.404L348.085 153.992L350.097 153.692L350.988 151.873Z" fill="#407CF1"/>
<path d="M327.313 168.294C327.313 168.401 320.95 168.479 313.097 168.479C305.243 168.479 298.88 168.401 298.88 168.294C298.88 168.187 305.243 168.108 313.097 168.108C320.95 168.108 327.313 168.194 327.313 168.294Z" fill="#407CF1"/>
<path d="M363.043 174.507C363.043 174.607 348.848 174.692 331.336 174.692C313.824 174.692 299.629 174.607 299.629 174.507C299.629 174.407 313.824 174.321 331.336 174.321C348.848 174.321 363.043 174.364 363.043 174.507Z" fill="#263238"/>
<path d="M363.043 179.771C363.043 179.871 348.848 179.957 331.336 179.957C313.824 179.957 299.629 179.871 299.629 179.771C299.629 179.672 313.824 179.586 331.336 179.586C348.848 179.586 363.043 179.672 363.043 179.771Z" fill="#263238"/>
<path d="M363.043 185.078C363.043 185.178 348.848 185.263 331.336 185.263C313.824 185.263 299.629 185.178 299.629 185.078C299.629 184.978 313.824 184.893 331.336 184.893C348.848 184.893 363.043 184.971 363.043 185.078Z" fill="#263238"/>
<path d="M363.043 190.378C363.043 190.485 348.848 190.563 331.336 190.563C313.824 190.563 299.629 190.485 299.629 190.378C299.629 190.271 313.824 190.192 331.336 190.192C348.848 190.192 363.043 190.278 363.043 190.378Z" fill="#263238"/>
<path d="M363.043 195.685C363.043 195.785 348.848 195.871 331.336 195.871C313.824 195.871 299.629 195.785 299.629 195.685C299.629 195.586 313.824 195.5 331.336 195.5C348.848 195.5 363.043 195.578 363.043 195.685Z" fill="#263238"/>
<path d="M366.553 76.4961H294.329V145.831H366.553V76.4961Z" fill="#E0E0E0"/>
<path d="M355.825 133.747L360.518 145.838H349.148L346.587 139.254L355.825 133.747Z" fill="#FFBE9D"/>
<path d="M312.533 145.838H343.327C343.805 141.287 344.105 136.986 344.105 136.986L345.688 141.266L358.621 134.796C358.621 134.796 353.92 122.263 349.982 118.019C344.989 112.648 336.066 113.183 336.066 113.183L324.453 113.375C321.481 113.727 318.588 114.571 315.893 115.872L315.608 115.958V116.015C313.097 118.155 305.55 128.269 305.55 128.269L308.332 130.973L314.038 136.287C314.031 136.304 314.027 136.322 314.027 136.341C314.027 136.359 314.031 136.377 314.038 136.394C314.081 136.972 312.533 145.838 312.533 145.838Z" fill="#407CF1"/>
<path d="M336.394 112.769C336.394 112.769 336.43 112.84 336.458 112.975C336.5 113.178 336.526 113.383 336.537 113.589C336.573 114.353 336.467 115.118 336.223 115.843C335.854 116.93 335.202 117.898 334.332 118.646C333.24 119.545 331.879 120.055 330.465 120.095C329.051 120.135 327.663 119.703 326.522 118.867C325.615 118.165 324.911 117.234 324.481 116.171C324.198 115.461 324.05 114.703 324.046 113.938C324.042 113.731 324.056 113.523 324.089 113.318C324.089 113.182 324.125 113.111 324.139 113.111C324.148 114.125 324.347 115.129 324.724 116.071C325.167 117.067 325.857 117.934 326.728 118.589C327.815 119.363 329.125 119.761 330.458 119.724C331.792 119.687 333.077 119.216 334.118 118.382C334.952 117.681 335.591 116.777 335.973 115.757C336.301 114.797 336.444 113.782 336.394 112.769Z" fill="#263238"/>
<path d="M347.393 115.522C347.393 115.558 347.079 115.522 346.573 115.736C345.857 116.007 345.233 116.478 344.775 117.092C344.12 118.021 343.719 119.105 343.612 120.237C343.441 121.514 343.406 122.955 343.349 124.453C343.27 127.463 343.384 130.16 343.527 132.157C343.591 133.077 343.655 133.855 343.698 134.482C343.746 134.767 343.758 135.057 343.734 135.345C343.648 135.071 343.588 134.789 343.555 134.504C343.477 133.954 343.363 133.163 343.263 132.178C343.004 129.609 342.909 127.027 342.978 124.446C343.002 123.015 343.102 121.586 343.277 120.166C343.404 118.981 343.853 117.854 344.575 116.906C345.073 116.271 345.756 115.808 346.53 115.579C346.736 115.517 346.95 115.483 347.165 115.479C347.315 115.501 347.393 115.508 347.393 115.522Z" fill="#263238"/>
<path d="M319.788 114.224C319.743 114.52 319.671 114.811 319.574 115.094C319.381 115.722 319.146 116.521 318.86 117.441C318.268 119.417 317.477 122.156 316.678 125.209C315.879 128.262 315.251 131.037 314.809 133.055C314.595 134.004 314.416 134.803 314.274 135.445C314.227 135.743 314.148 136.034 314.038 136.315C314.043 136.013 314.074 135.713 314.131 135.416C314.217 134.846 314.359 133.99 314.545 133.005C314.93 130.965 315.529 128.169 316.321 125.116C317.113 122.063 317.954 119.324 318.611 117.362C318.939 116.378 319.217 115.593 319.424 115.051C319.517 114.764 319.639 114.486 319.788 114.224Z" fill="#263238"/>
<path opacity="0.2" d="M343.142 125.288L347.422 140.453L345.717 141.309L344.133 137.029C344.133 137.029 342.564 127.999 343.142 125.288Z" fill="black"/>
<g opacity="0.2">
<path d="M320.287 114.238C317.812 115.494 323.889 118.746 326.664 118.718L324.781 113.325C324.781 113.325 321.114 113.817 320.287 114.238Z" fill="black"/>
</g>
<path d="M330.737 119.752C329.878 119.811 329.015 119.688 328.206 119.392C327.397 119.096 326.66 118.632 326.041 118.032C325.423 117.432 324.938 116.709 324.618 115.909C324.297 115.109 324.149 114.251 324.182 113.39C324.253 111.414 324.317 109.823 324.317 109.823C324.317 109.823 319.417 109.395 319.032 104.552C318.646 99.7082 318.732 88.5162 318.732 88.5162C321.409 87.1465 324.403 86.5162 327.405 86.6905C330.407 86.8648 333.308 87.8374 335.809 89.5077L336.565 90.0071L336.472 113.675C336.458 115.224 335.859 116.711 334.796 117.838C333.732 118.964 332.283 119.648 330.737 119.752Z" fill="#FFBE9D"/>
<path d="M321.364 97.0475C321.466 96.9487 321.537 96.8217 321.566 96.6827C321.596 96.5437 321.583 96.399 321.53 96.2672C321.476 96.1355 321.385 96.0226 321.267 95.9432C321.149 95.8637 321.01 95.8213 320.868 95.8213C320.726 95.8213 320.587 95.8637 320.47 95.9432C320.352 96.0226 320.26 96.1355 320.207 96.2672C320.154 96.399 320.141 96.5437 320.171 96.6827C320.2 96.8217 320.27 96.9487 320.373 97.0475C320.506 97.1761 320.683 97.2479 320.868 97.2479C321.053 97.2479 321.231 97.1761 321.364 97.0475Z" fill="#263238"/>
<path d="M319.217 95.6061C319.295 95.6846 319.745 95.2923 320.415 95.2423C321.086 95.1924 321.592 95.5062 321.657 95.4135C321.721 95.3208 321.607 95.2281 321.385 95.0783C321.084 94.8943 320.732 94.8095 320.38 94.8357C320.029 94.8642 319.696 95.0041 319.431 95.2352C319.238 95.4135 319.174 95.5704 319.217 95.6061Z" fill="#263238"/>
<path d="M327.456 95.9839C327.34 96.0651 327.25 96.179 327.199 96.3112C327.148 96.4433 327.137 96.5878 327.168 96.726C327.2 96.8642 327.271 96.9901 327.374 97.0874C327.477 97.1847 327.607 97.2491 327.747 97.2724C327.887 97.2957 328.03 97.2768 328.159 97.2182C328.288 97.1596 328.397 97.0638 328.471 96.9432C328.546 96.8225 328.583 96.6825 328.577 96.5408C328.571 96.3992 328.524 96.2625 328.44 96.148C328.33 95.9974 328.165 95.8958 327.981 95.8652C327.797 95.8345 327.609 95.8771 327.456 95.9839Z" fill="#263238"/>
<path d="M326.279 95.6279C326.365 95.7064 326.814 95.3069 327.485 95.257C328.155 95.207 328.654 95.5209 328.726 95.4282C328.797 95.3354 328.676 95.2427 328.448 95.1C328.151 94.9099 327.799 94.8245 327.449 94.8575C327.098 94.8804 326.765 95.0183 326.5 95.2498C326.3 95.4353 326.243 95.5922 326.279 95.6279Z" fill="#263238"/>
<path d="M324.153 101.505C323.798 101.394 323.427 101.343 323.055 101.355C322.876 101.355 322.741 101.312 322.719 101.22C322.703 101.046 322.735 100.87 322.812 100.713L323.247 99.2867C323.669 98.1047 323.973 96.8837 324.153 95.6416C323.608 96.7711 323.182 97.9545 322.883 99.1725C322.741 99.6576 322.605 100.121 322.477 100.599C322.383 100.825 322.366 101.076 322.427 101.312C322.456 101.378 322.501 101.437 322.556 101.482C322.612 101.528 322.678 101.56 322.748 101.576C322.847 101.593 322.948 101.593 323.048 101.576C323.417 101.617 323.792 101.593 324.153 101.505Z" fill="#263238"/>
<path d="M324.31 109.73C326.552 109.621 328.71 108.847 330.509 107.505C330.509 107.505 329.246 111.071 324.381 110.986L324.31 109.73Z" fill="#EB996E"/>
<path d="M336.351 95.1426C336.444 95.107 340.317 94.6861 339.703 98.431C339.176 101.662 335.695 100.678 335.702 100.571C335.709 100.464 336.351 95.1426 336.351 95.1426Z" fill="#FFBE9D"/>
<path d="M337.057 99.1441C337.057 99.1441 337.107 99.1869 337.2 99.2369C337.329 99.3045 337.48 99.3198 337.621 99.2797C337.832 99.1577 338.009 98.9834 338.134 98.7736C338.259 98.5638 338.328 98.3254 338.334 98.0813C338.366 97.8067 338.335 97.5283 338.241 97.2681C338.217 97.1652 338.169 97.0694 338.101 96.9887C338.033 96.9081 337.946 96.8449 337.849 96.8045C337.785 96.7844 337.716 96.7869 337.654 96.8116C337.591 96.8362 337.539 96.8816 337.507 96.94C337.457 97.0256 337.507 97.0898 337.457 97.0898C337.407 97.0898 337.392 97.0327 337.457 96.9043C337.482 96.8266 337.532 96.7591 337.599 96.7117C337.692 96.6523 337.805 96.6318 337.913 96.6547C338.044 96.6894 338.163 96.7577 338.26 96.8528C338.356 96.9478 338.426 97.0664 338.462 97.1968C338.575 97.4845 338.619 97.7948 338.591 98.1027C338.585 98.3898 338.494 98.6687 338.33 98.9046C338.167 99.1405 337.937 99.3231 337.671 99.4295C337.582 99.4487 337.491 99.4477 337.403 99.4267C337.316 99.4057 337.234 99.3652 337.164 99.3082C337.057 99.2226 337.043 99.1513 337.057 99.1441Z" fill="#EB996E"/>
<path d="M335.538 98.5095C334.789 98.9589 333.769 98.3954 333.398 97.6107C333.095 96.7877 332.967 95.9109 333.02 95.0356C332.977 93.8432 332.77 92.6624 332.406 91.5261C332.36 91.1104 332.208 90.7134 331.965 90.3726C331.722 90.0319 331.397 89.7587 331.019 89.5788C330.641 89.3989 330.224 89.3182 329.807 89.3444C329.389 89.3706 328.985 89.5028 328.633 89.7285C327.85 90.1199 326.99 90.3342 326.115 90.3563C324.966 90.2564 324.018 89.3505 322.869 89.1935C321.721 89.0366 320.793 89.5573 319.759 89.8498C318.732 90.191 317.617 90.1658 316.606 89.7785C316.108 89.577 315.682 89.2306 315.383 88.7842C315.084 88.3378 314.927 87.8119 314.93 87.2747C314.95 87.0105 315.025 86.7534 315.15 86.5198C315.275 86.2862 315.448 86.0813 315.656 85.9182C315.865 85.755 316.106 85.6373 316.363 85.5724C316.62 85.5075 316.887 85.4969 317.148 85.5414C316.964 85.416 316.809 85.2522 316.694 85.0614C316.579 84.8706 316.506 84.6571 316.481 84.4356C316.456 84.2142 316.479 83.9899 316.549 83.7781C316.618 83.5664 316.733 83.3722 316.884 83.2088C317.218 82.8973 317.631 82.685 318.079 82.5955C318.526 82.506 318.989 82.543 319.417 82.7023C320.264 83.0295 321.032 83.5328 321.671 84.1789C321.758 83.7826 321.976 83.427 322.288 83.1684C322.601 82.9099 322.991 82.7634 323.397 82.7523C324.222 82.7559 325.024 83.0289 325.68 83.5298C326.393 83.9863 326.971 84.5427 327.691 84.9564C329.118 85.7482 330.816 85.8338 332.421 86.1263C334.026 86.4187 335.745 87.0679 336.522 88.5088C337.235 89.7713 336.75 91.2907 336.693 92.7316C336.636 94.1725 336.629 94.5648 336.558 95.9701C336.544 95.9201 336.636 97.8746 335.538 98.5095Z" fill="#263238"/>
<path d="M323.547 103.467C323.547 103.51 323.725 103.588 324.053 103.581C324.481 103.568 324.895 103.424 325.239 103.169C325.583 102.914 325.842 102.56 325.979 102.155C326.079 101.841 326.051 101.641 325.979 101.634C325.908 101.627 325.715 102.347 325.009 102.904C324.554 103.167 324.061 103.357 323.547 103.467Z" fill="white"/>
<path d="M317.976 86.5332C317.864 86.6116 317.777 86.7205 317.725 86.8469C317.673 86.9734 317.658 87.1121 317.683 87.2465C317.714 87.5506 317.856 87.8326 318.083 88.0383C318.24 88.1637 318.424 88.253 318.62 88.2999C318.816 88.3467 319.019 88.3499 319.217 88.3094C319.69 88.2188 320.14 88.0371 320.544 87.7744C320.983 87.471 321.464 87.2309 321.97 87.0611C322.549 86.9388 323.152 87.03 323.668 87.3179C324.217 87.5889 324.731 87.9812 325.301 88.3308C325.838 88.7147 326.482 88.9216 327.142 88.9228C327.753 88.8434 328.325 88.5739 328.775 88.1524C329.178 87.7976 329.645 87.5239 330.152 87.3464C330.602 87.2376 331.073 87.2649 331.507 87.4249C332.15 87.656 332.679 88.1261 332.984 88.7374C333.077 88.9673 333.147 89.2064 333.191 89.4507C333.191 89.2043 333.137 88.9609 333.034 88.7374C332.889 88.4198 332.682 88.134 332.427 87.8965C332.171 87.659 331.87 87.4745 331.543 87.3535C331.088 87.1772 330.591 87.1423 330.116 87.2537C329.589 87.4249 329.103 87.7043 328.69 88.074C328.248 88.4614 327.702 88.7096 327.12 88.7873C326.487 88.782 325.872 88.5801 325.358 88.2095C324.802 87.8671 324.281 87.4962 323.711 87.1966C323.167 86.8972 322.534 86.8035 321.927 86.9327C321.421 87.1041 320.941 87.3441 320.501 87.646C320.111 87.9054 319.675 88.0871 319.217 88.181C319.032 88.2236 318.84 88.2246 318.655 88.1839C318.47 88.1431 318.297 88.0617 318.147 87.9456C317.935 87.7616 317.793 87.5093 317.747 87.2323C317.725 87.106 317.735 86.9762 317.775 86.8543C317.814 86.7325 317.883 86.6222 317.976 86.5332Z" fill="#455A64"/>
<path d="M320.123 83.9795C320.087 83.9269 320.038 83.885 319.98 83.8583C319.897 83.8179 319.805 83.7969 319.713 83.7969C319.62 83.7969 319.529 83.8179 319.445 83.8583C319.308 83.9153 319.194 84.0163 319.12 84.1454C319.046 84.2745 319.018 84.4244 319.039 84.5716C319.066 84.7666 319.147 84.9501 319.273 85.1013C319.399 85.2526 319.565 85.3656 319.752 85.4276C320.201 85.5586 320.68 85.536 321.114 85.3634C321.592 85.1714 322.086 85.0234 322.591 84.9211C322.868 84.901 323.147 84.943 323.406 85.0442C323.665 85.1454 323.899 85.3032 324.089 85.506C324.501 85.9694 324.982 86.3664 325.516 86.683C325.815 86.7885 326.133 86.8334 326.45 86.815C326.767 86.7966 327.078 86.7154 327.363 86.576C327.879 86.3362 328.423 86.1636 328.982 86.0624C329.782 85.9537 330.596 86.0889 331.318 86.4504C332.039 86.8118 332.635 87.3827 333.027 88.0882C333.255 88.4948 333.326 88.7445 333.341 88.7374C333.282 88.5034 333.193 88.2781 333.077 88.0669C332.77 87.4763 332.322 86.9713 331.771 86.5974C330.947 86.0405 329.947 85.8045 328.961 85.934C328.392 86.0353 327.839 86.2078 327.313 86.4476C327.045 86.5809 326.753 86.6591 326.454 86.6774C326.155 86.6958 325.855 86.6541 325.573 86.5546C325.043 86.2442 324.562 85.8572 324.146 85.4062C323.943 85.1898 323.694 85.0222 323.417 84.916C323.141 84.8097 322.844 84.7676 322.548 84.7927C322.034 84.8959 321.532 85.0512 321.05 85.2564C320.649 85.4185 320.207 85.4485 319.788 85.342C319.616 85.289 319.462 85.1886 319.345 85.0523C319.228 84.916 319.151 84.7494 319.124 84.5716C319.101 84.438 319.123 84.3003 319.188 84.1811C319.253 84.0619 319.356 83.9682 319.481 83.9153C319.559 83.8785 319.644 83.8594 319.731 83.8594C319.817 83.8594 319.902 83.8785 319.98 83.9153C320.08 83.9153 320.116 83.9867 320.123 83.9795Z" fill="#455A64"/>
<path d="M334.447 87.7739C334.539 87.8095 334.803 87.2246 335.431 86.8394C336.059 86.4542 336.686 86.4614 336.693 86.3615C336.701 86.2616 336.544 86.2474 336.265 86.2402C335.904 86.249 335.552 86.3549 335.245 86.547C334.939 86.739 334.69 87.0101 334.525 87.3316C334.411 87.5884 334.404 87.7596 334.447 87.7739Z" fill="#263238"/>
<path d="M335.017 84.1865C334.917 84.1865 335.06 84.9426 334.939 85.8343C334.817 86.7259 334.518 87.3965 334.603 87.4464C334.977 86.9994 335.214 86.4548 335.287 85.877C335.361 85.2993 335.267 84.7126 335.017 84.1865Z" fill="#263238"/>
<path d="M336.151 97.1902C336.283 96.988 336.37 96.7597 336.406 96.5209C336.442 96.282 336.425 96.0383 336.358 95.8063C336.213 95.3066 335.945 94.8507 335.581 94.4796C335.393 94.2588 335.265 93.9935 335.21 93.7092C335.185 93.3955 335.224 93.0801 335.324 92.7819C335.52 92.1737 335.557 91.5252 335.431 90.8987C335.317 90.3801 335.008 89.9253 334.568 89.629C334.272 89.4348 333.923 89.3376 333.569 89.3508C333.44 89.3562 333.314 89.3878 333.198 89.4435C333.198 89.4435 333.334 89.4435 333.569 89.4079C333.907 89.4129 334.235 89.5199 334.511 89.7146C334.922 90.0004 335.206 90.4354 335.302 90.9272C335.419 91.5334 335.38 92.1593 335.188 92.7462C335.083 93.063 335.044 93.3981 335.074 93.7306C335.136 94.0369 335.276 94.3221 335.481 94.558C335.838 94.9124 336.105 95.348 336.258 95.8277C336.333 96.1588 336.333 96.5024 336.258 96.8335C336.234 96.9556 336.198 97.0751 336.151 97.1902Z" fill="#455A64"/>
<path d="M332.627 131.707C332.636 131.861 332.636 132.016 332.627 132.171C332.627 132.506 332.627 132.884 332.663 133.398C332.663 134.453 332.727 135.937 332.741 137.727L332.699 137.613L334.896 139.661H334.71L338.491 138.127L338.384 138.27C338.399 138.15 338.42 138.031 338.448 137.913C338.862 135.666 339.247 133.547 339.589 131.707L339.753 131.9C337.649 131.9 335.88 131.85 334.617 131.821L333.141 131.778C332.968 131.769 332.796 131.745 332.627 131.707C332.788 131.683 332.95 131.671 333.112 131.671L334.539 131.629C335.787 131.629 337.599 131.557 339.775 131.543H339.967V131.736C339.639 133.583 339.254 135.702 338.869 137.949L338.805 138.305V138.405L338.712 138.448L334.924 139.953L334.817 139.996L334.739 139.917L332.599 137.842L332.549 137.792V137.727C332.549 135.873 332.599 134.346 332.627 133.305C332.627 132.827 332.627 132.435 332.67 132.106C332.639 131.976 332.625 131.841 332.627 131.707Z" fill="#263238"/>
<path d="M339.34 133.569C338.235 133.814 337.103 133.908 335.973 133.848C334.842 133.911 333.707 133.825 332.599 133.591C333.718 133.455 334.847 133.417 335.973 133.477C337.096 133.413 338.222 133.444 339.34 133.569Z" fill="#263238"/>
<path d="M307.14 129.846C307.29 129.996 295.727 145.838 295.727 145.838H307.062L314.017 136.308L307.14 129.846Z" fill="#FFBE9D"/>
<path d="M284.179 43.335H164.669V243H284.179V43.335Z" fill="#F5F5F5"/>
<path d="M196.377 160.912L197.653 163.501L200.521 163.922L198.445 165.941L198.937 168.794L196.377 167.446L193.809 168.794L194.301 165.941L192.232 163.922L195.093 163.501L196.377 160.912Z" fill="#407CF1"/>
<path d="M210.6 160.912L211.884 163.501L214.744 163.922L212.676 165.941L213.161 168.794L210.6 167.446L208.039 168.794L208.531 165.941L206.456 163.922L209.323 163.501L210.6 160.912Z" fill="#407CF1"/>
<path d="M224.831 160.912L226.115 163.501L228.975 163.922L226.906 165.941L227.391 168.794L224.831 167.446L222.27 168.794L222.762 165.941L220.686 163.922L223.554 163.501L224.831 160.912Z" fill="#407CF1"/>
<path d="M239.061 160.912L240.345 163.501L243.206 163.922L241.137 165.941L241.622 168.794L239.061 167.446L236.501 168.794L236.993 165.941L234.917 163.922L237.777 163.501L239.061 160.912Z" fill="#407CF1"/>
<path d="M253.292 160.912L254.569 163.501L257.436 163.922L255.361 165.941L255.853 168.794L253.292 167.446L250.731 168.794L251.216 165.941L249.148 163.922L252.008 163.501L253.292 160.912Z" fill="#407CF1"/>
<path d="M219.545 184.315C219.545 184.415 210.472 184.501 199.28 184.501C188.088 184.501 179.014 184.415 179.014 184.315C179.014 184.215 188.088 184.13 199.28 184.13C210.472 184.13 219.545 184.208 219.545 184.315Z" fill="#407CF1"/>
<path d="M270.469 193.11C270.469 193.217 250.232 193.296 225.28 193.296C200.328 193.296 180.084 193.217 180.084 193.11C180.084 193.003 200.314 192.925 225.28 192.925C250.246 192.925 270.469 193.01 270.469 193.11Z" fill="#263238"/>
<path d="M270.469 200.672C270.469 200.772 250.232 200.857 225.28 200.857C200.328 200.857 180.084 200.772 180.084 200.672C180.084 200.572 200.314 200.486 225.28 200.486C250.246 200.486 270.469 200.572 270.469 200.672Z" fill="#263238"/>
<path d="M270.469 208.232C270.469 208.332 250.232 208.418 225.28 208.418C200.328 208.418 180.084 208.332 180.084 208.232C180.084 208.132 200.314 208.047 225.28 208.047C250.246 208.047 270.469 208.125 270.469 208.232Z" fill="#263238"/>
<path d="M270.469 215.794C270.469 215.894 250.232 215.979 225.28 215.979C200.328 215.979 180.084 215.894 180.084 215.794C180.084 215.694 200.314 215.608 225.28 215.608C250.246 215.608 270.469 215.687 270.469 215.794Z" fill="#263238"/>
<path d="M270.469 223.349C270.469 223.456 250.232 223.534 225.28 223.534C200.328 223.534 180.084 223.456 180.084 223.349C180.084 223.242 200.314 223.163 225.28 223.163C250.246 223.163 270.469 223.249 270.469 223.349Z" fill="#263238"/>
<path d="M275.476 53.4707H172.53V152.301H275.476V53.4707Z" fill="#E0E0E0"/>
<path d="M218.104 69.8488C219.181 66.2323 222.491 63.5288 226.158 62.6514C229.824 61.774 234.375 60.5757 237.735 62.2876C239.832 63.3576 241.843 64.9126 242.671 67.1168C243.648 69.7347 242.143 74.6138 241.394 77.303C240.645 79.9922 240.081 83.0666 241.558 85.4348C243.035 87.803 245.938 88.6305 247.764 90.642C248.977 92.0889 249.578 93.9512 249.441 95.8341C249.304 97.717 248.439 99.4725 247.029 100.728C250.275 100.536 253.014 103.846 252.9 107.091C252.786 110.337 250.41 113.19 247.514 114.66C244.618 116.129 241.273 116.436 238.027 116.443C233.997 116.449 229.978 116.03 226.036 115.194C222.791 114.481 219.402 113.418 217.291 110.858C215.344 108.504 214.809 105.294 214.802 102.241C214.802 91.4481 220.451 80.7483 217.99 70.234" fill="#263238"/>
<path d="M220.736 67.3666C219.038 66.2042 217.04 65.5564 214.982 65.501C212.925 65.4455 210.895 65.9846 209.136 67.0538C207.377 68.1229 205.964 69.6767 205.066 71.5288C204.168 73.3809 203.823 75.4526 204.073 77.4957C204.337 79.6357 205.229 81.7756 204.687 83.8086C203.666 87.6819 198.21 89.187 197.496 93.1245C197.211 94.6796 197.76 96.2417 198.174 97.7611C198.588 99.2805 198.887 101 198.074 102.369C197.489 103.382 196.433 104.017 195.606 104.837C192.952 107.491 193.002 112.149 195.228 115.18C197.453 118.212 201.391 119.66 205.143 119.539C208.895 119.417 212.49 117.898 215.693 115.936" fill="#263238"/>
<path d="M212.854 71.7033L212.904 74.2641L213.418 112.691C213.475 117.156 217.362 120.658 222.134 120.537C226.963 120.43 230.88 116.699 230.894 112.191C230.894 107.462 231.008 102.483 231.008 102.483C231.008 102.483 237.107 101.47 238.369 93.5166C238.997 89.5648 238.797 83.0807 238.462 77.7808C238.394 76.6473 238.097 75.5393 237.589 74.5239C237.08 73.5085 236.371 72.6068 235.505 71.8733C234.638 71.1398 233.631 70.5897 232.546 70.2565C231.46 69.9232 230.318 69.8136 229.189 69.9343L212.854 71.7033Z" fill="#B78876"/>
<path d="M235.402 82.318C235.404 82.5837 235.302 82.8397 235.119 83.0315C234.935 83.2234 234.683 83.3359 234.418 83.3452C234.288 83.3558 234.158 83.3403 234.034 83.2995C233.91 83.2586 233.796 83.1933 233.698 83.1075C233.601 83.0216 233.521 82.9169 233.464 82.7997C233.408 82.6824 233.376 82.555 233.369 82.425C233.365 82.16 233.465 81.904 233.648 81.7119C233.831 81.5199 234.082 81.4071 234.346 81.3978C234.477 81.3871 234.608 81.4026 234.732 81.4434C234.856 81.4841 234.97 81.5493 235.069 81.6351C235.167 81.7209 235.247 81.8255 235.304 81.9428C235.362 82.0601 235.395 82.1876 235.402 82.318Z" fill="#263238"/>
<path d="M237.043 81.1767C236.914 81.3051 236.144 80.7345 235.045 80.7345C233.947 80.7345 233.141 81.2909 233.027 81.1553C232.913 81.0198 233.091 80.8557 233.448 80.5989C233.922 80.2738 234.484 80.0997 235.06 80.0996C235.631 80.099 236.188 80.2787 236.65 80.6132C237 80.87 237.114 81.1125 237.043 81.1767Z" fill="#263238"/>
<path d="M224.831 82.318C224.833 82.5837 224.731 82.8397 224.547 83.0315C224.363 83.2234 224.112 83.3359 223.846 83.3452C223.717 83.3539 223.587 83.3369 223.464 83.2954C223.342 83.2538 223.228 83.1884 223.131 83.1029C223.033 83.0174 222.954 82.9135 222.897 82.7972C222.84 82.6808 222.806 82.5543 222.798 82.425C222.794 82.1588 222.895 81.9017 223.079 81.7095C223.263 81.5172 223.516 81.4053 223.782 81.3978C223.912 81.3871 224.042 81.4027 224.166 81.4435C224.29 81.4843 224.404 81.5496 224.502 81.6355C224.599 81.7213 224.679 81.826 224.736 81.9433C224.792 82.0605 224.824 82.188 224.831 82.318Z" fill="#263238"/>
<path d="M226.272 81.3766C226.143 81.5122 225.366 80.9415 224.274 80.9415C223.183 80.9415 222.37 81.4979 222.249 81.3624C222.127 81.2268 222.32 81.0628 222.669 80.806C223.146 80.4794 223.711 80.3053 224.289 80.3066C224.86 80.306 225.416 80.4857 225.879 80.8202C226.215 81.0628 226.343 81.3196 226.272 81.3766Z" fill="#263238"/>
<path d="M230.252 89.5149C230.831 89.3337 231.43 89.2258 232.035 89.1939C232.313 89.1939 232.577 89.1083 232.627 88.9157C232.651 88.6275 232.586 88.3389 232.442 88.0883L231.607 85.9483C230.459 82.9096 229.624 80.413 229.753 80.3631C229.881 80.3131 230.901 82.7455 232.057 85.7843C232.335 86.5333 232.599 87.2466 232.848 87.9242C233.027 88.2611 233.078 88.6514 232.991 89.0228C232.951 89.1214 232.889 89.2098 232.81 89.2814C232.731 89.353 232.637 89.406 232.534 89.4365C232.378 89.4766 232.218 89.4981 232.057 89.5007C231.458 89.5824 230.852 89.5872 230.252 89.5149Z" fill="#263238"/>
<path d="M231.008 102.505C227.262 102.558 223.576 101.57 220.358 99.6514C220.358 99.6514 222.94 105.115 230.901 104.374L231.008 102.505Z" fill="#AA6550"/>
<path d="M229.788 92.1621C229.576 91.9035 229.302 91.7026 228.992 91.5779C228.681 91.4533 228.344 91.4089 228.012 91.4488C227.77 91.4699 227.536 91.5403 227.322 91.6556C227.109 91.7709 226.921 91.9287 226.771 92.1193C226.622 92.3007 226.534 92.5236 226.517 92.7573C226.501 92.9911 226.557 93.2242 226.678 93.4247C226.854 93.6187 227.083 93.7566 227.337 93.8213C227.59 93.886 227.858 93.8746 228.105 93.7885C228.631 93.607 229.115 93.3234 229.531 92.9539C229.652 92.8609 229.758 92.7503 229.845 92.6258C229.886 92.5657 229.907 92.4949 229.907 92.4225C229.907 92.3501 229.886 92.2793 229.845 92.2192" fill="#AA6550"/>
<path d="M227.056 90.2784C227.235 90.2784 227.235 91.4554 228.255 92.3043C229.275 93.1531 230.544 93.0176 230.552 93.1817C230.559 93.3457 230.273 93.417 229.738 93.4313C229.04 93.4376 228.362 93.2005 227.82 92.7608C227.302 92.3353 226.968 91.7277 226.885 91.0631C226.807 90.5638 226.942 90.2713 227.056 90.2784Z" fill="#263238"/>
<path d="M219.324 67.9808C219.324 67.8809 219.452 67.831 219.516 67.8595C219.581 67.8881 219.609 67.9879 219.566 68.0878C219.553 68.1282 219.525 68.1623 219.489 68.1834C219.452 68.2045 219.408 68.2111 219.367 68.2019C219.333 68.1775 219.309 68.141 219.301 68.0999C219.293 68.0587 219.301 68.0162 219.324 67.9808Z" fill="#263238"/>
<path d="M212.433 109.324C213.6 108.884 214.657 108.197 215.534 107.311C216.41 106.425 217.085 105.359 217.512 104.188C218.349 101.825 218.409 99.2553 217.683 96.8552C217.37 95.7496 216.927 94.537 217.412 93.4955C217.865 92.793 218.454 92.189 219.146 91.7194C220.507 90.4039 221.314 88.6173 221.4 86.7261C221.473 84.8413 221.129 82.9635 220.394 81.2264C220.016 80.2634 219.559 79.2077 219.909 78.2376C220.229 77.576 220.704 77.0011 221.293 76.5613C222.424 75.4998 223.359 74.2465 224.053 72.8592C224.538 71.882 224.902 70.7192 224.431 69.7135C223.854 68.5151 222.356 68.1442 221.036 68.0443C217.883 67.8018 214.402 68.5008 212.398 70.9404C210.607 73.1231 210.4 76.169 210.258 79.0009C209.858 87.9031 209.459 96.898 210.971 105.679" fill="#263238"/>
<path d="M241.48 70.8189C241.041 71.0843 240.586 71.3225 240.117 71.5322C239.705 71.8301 239.321 72.1643 238.969 72.5308C238.762 72.7306 238.541 72.9517 238.341 73.1799L238.198 73.3511L237.97 73.5794L237.421 74.1001C236.891 74.5936 236.321 75.0422 235.716 75.4412C234.822 76.0643 233.821 76.5187 232.763 76.7822C230.729 77.2364 228.6 76.9848 226.728 76.0689C225.437 75.4476 224.305 74.5401 223.418 73.4153C222.063 71.6106 221.856 70.1483 222.477 69.3565C223.097 68.5648 224.674 68.6432 226.429 69.1069C227.283 69.3295 228.15 69.501 229.025 69.6205C229.713 69.7189 230.412 69.6996 231.094 69.5634C231.427 69.4882 231.751 69.3732 232.057 69.221C232.506 69.0213 233.062 68.7288 233.704 68.4221C234.025 68.2723 234.361 68.1225 234.725 67.9798C234.903 67.9085 235.095 67.8443 235.281 67.7801C235.466 67.7159 235.702 67.6375 235.909 67.5875C236.686 67.3859 237.492 67.3207 238.291 67.3949C238.925 67.4191 239.546 67.5839 240.109 67.8775C240.671 68.1712 241.161 68.5862 241.544 69.0926C241.744 69.3394 241.848 69.6504 241.836 69.9678C241.824 70.2852 241.697 70.5876 241.48 70.8189Z" fill="#263238"/>
<path d="M201.291 114.803C201.251 114.767 201.213 114.729 201.177 114.688C201.07 114.571 200.97 114.447 200.877 114.317C200.516 113.824 200.244 113.271 200.071 112.684C199.805 111.757 199.756 110.78 199.929 109.831C200.182 108.551 200.861 107.394 201.855 106.549C202.918 105.579 204.309 104.852 205.585 103.839C206.25 103.326 206.82 102.701 207.269 101.991C207.734 101.248 207.923 100.364 207.804 99.4947C207.561 97.6972 206.078 96.1207 205.949 93.9665C205.897 92.8808 206.159 91.8032 206.703 90.8622C207.247 89.9211 208.05 89.1565 209.016 88.6594C209.977 88.2461 210.889 87.727 211.734 87.1115C212.102 86.7859 212.391 86.3812 212.58 85.9278C212.769 85.4744 212.853 84.9841 212.826 84.4936C212.777 83.5232 212.535 82.5724 212.112 81.6974C211.699 80.8343 211.199 80.014 210.771 79.1794C210.33 78.3646 210.026 77.4825 209.872 76.5687C209.756 75.6876 209.867 74.7915 210.193 73.9651C210.799 72.5089 211.857 71.286 213.211 70.4769C214.322 69.8238 215.551 69.3949 216.827 69.2143C217.772 69.0747 218.726 69.0127 219.681 69.0289C220.472 69.0289 221.107 69.0859 221.492 69.1216L221.963 69.1715C222.07 69.1715 222.12 69.1715 222.12 69.1715C221.911 69.1857 221.701 69.1857 221.492 69.1715C221.079 69.1715 220.465 69.1715 219.681 69.1715C218.725 69.1761 217.77 69.2572 216.827 69.4141C215.589 69.6107 214.399 70.0442 213.325 70.6909C212.038 71.4848 211.038 72.6695 210.472 74.072C210.172 74.8481 210.074 75.6874 210.186 76.5116C210.341 77.3891 210.64 78.2351 211.071 79.0154C211.492 79.8357 211.998 80.6488 212.426 81.5405C212.885 82.456 213.15 83.4566 213.204 84.4794C213.237 85.022 213.145 85.5651 212.936 86.0671C212.727 86.569 212.407 87.0165 211.998 87.3754C211.134 88.0171 210.198 88.5557 209.209 88.9804C208.304 89.4505 207.553 90.1715 207.047 91.057C206.541 91.9426 206.301 92.9552 206.356 93.9736C206.449 95.9567 207.911 97.5402 208.182 99.4662C208.311 100.414 208.102 101.376 207.59 102.184C207.117 102.922 206.518 103.572 205.821 104.103C204.494 105.137 203.11 105.836 202.076 106.763C201.108 107.56 200.439 108.662 200.178 109.888C199.988 110.816 200.015 111.775 200.257 112.691C200.479 113.449 200.829 114.163 201.291 114.803Z" fill="#455A64"/>
<path d="M245.66 113.269C245.831 113.181 245.982 113.059 246.105 112.91C246.227 112.762 246.319 112.59 246.373 112.406C246.485 111.977 246.453 111.523 246.28 111.115C246.015 110.589 245.607 110.149 245.103 109.845C244.554 109.467 243.876 109.167 243.199 108.704C242.818 108.475 242.492 108.164 242.245 107.794C241.999 107.424 241.837 107.004 241.772 106.564C241.751 105.578 242.071 104.616 242.678 103.839C243.249 103.019 243.991 102.32 244.561 101.492C245.146 100.717 245.402 99.7437 245.275 98.7815C245.109 97.8869 244.735 97.0438 244.183 96.3206C243.156 94.8939 241.879 93.8525 241.073 92.754C240.368 91.92 239.897 90.9128 239.711 89.8365C239.67 89.5455 239.67 89.2501 239.711 88.9591C239.711 88.7594 239.768 88.6524 239.782 88.6595C239.774 89.0458 239.796 89.4321 239.846 89.8151C240.08 90.8457 240.571 91.8003 241.273 92.5899C242.086 93.6528 243.37 94.6585 244.454 96.1565C245.045 96.922 245.446 97.8167 245.624 98.7673C245.702 99.2836 245.673 99.8106 245.538 100.315C245.385 100.829 245.144 101.311 244.825 101.742C244.226 102.619 243.477 103.318 242.928 104.089C242.368 104.797 242.066 105.675 242.072 106.578C242.128 106.975 242.272 107.354 242.493 107.688C242.713 108.023 243.006 108.304 243.349 108.511C243.983 108.961 244.661 109.282 245.217 109.681C245.756 110.028 246.182 110.524 246.444 111.108C246.626 111.564 246.639 112.07 246.48 112.534C246.392 112.828 246.202 113.081 245.945 113.248C245.853 113.279 245.755 113.286 245.66 113.269Z" fill="#455A64"/>
<path d="M242.036 67.5666C242.036 67.5666 242.036 67.6522 242.036 67.8162C242.034 68.0561 242.008 68.2951 241.958 68.5296C241.782 69.4021 241.352 70.2035 240.723 70.8336C240.256 71.3068 239.689 71.6696 239.063 71.8954C238.437 72.1213 237.769 72.2045 237.107 72.139C236.316 72.0806 235.554 71.8176 234.896 71.3757C234.232 70.8754 233.638 70.2903 233.127 69.6352C232.63 69.0114 232.052 68.4572 231.408 67.9874C230.8 67.5633 230.131 67.2338 229.425 67.0102C228.22 66.6352 226.937 66.5884 225.708 66.8747C224.876 67.073 224.083 67.4081 223.361 67.8662C222.848 68.1943 222.591 68.4154 222.577 68.394C222.775 68.1379 223.016 67.9182 223.29 67.7449C223.999 67.2253 224.8 66.8453 225.651 66.625C226.925 66.285 228.268 66.3048 229.532 66.6821C230.276 66.9085 230.98 67.2477 231.622 67.6878C232.296 68.1708 232.901 68.7445 233.419 69.3927C233.909 70.0231 234.477 70.5888 235.11 71.0761C235.717 71.4792 236.416 71.7243 237.143 71.7894C237.761 71.856 238.386 71.7872 238.975 71.5876C239.564 71.388 240.102 71.0626 240.552 70.6338C241.162 70.0482 241.603 69.3089 241.829 68.4939C241.979 67.909 241.979 67.5666 242.036 67.5666Z" fill="#455A64"/>
<path d="M226.55 77.0756C226.443 77.3752 225.344 77.2326 224.06 77.3895C222.776 77.5464 221.735 77.8959 221.564 77.632C221.485 77.5036 221.664 77.2183 222.084 76.9187C222.645 76.5645 223.278 76.3426 223.937 76.2697C224.596 76.1967 225.262 76.2748 225.886 76.4978C226.343 76.7047 226.6 76.9401 226.55 77.0756Z" fill="#263238"/>
<path d="M236.65 77.9948C236.458 78.2445 235.702 77.9948 234.796 77.9948C233.89 77.9948 233.112 78.1661 232.934 77.9021C232.863 77.7737 232.984 77.5241 233.319 77.2887C233.768 76.9977 234.297 76.8554 234.831 76.8821C235.363 76.8943 235.878 77.0685 236.308 77.3814C236.629 77.6168 236.736 77.8736 236.65 77.9948Z" fill="#263238"/>
<path d="M205.585 152.623C205.971 153.287 203.153 143.792 203.153 143.792L200.792 152.466L183.28 152.595C183.28 152.595 193.174 120.253 197.875 115.737C204.009 109.845 215.508 109.524 215.508 109.524L222.391 115.395L233.262 109.81L233.662 109.853C237.226 110.291 240.626 111.604 243.559 113.675C246.493 115.746 248.868 118.511 250.475 121.722L262.266 152.274H246.701L243.377 143.257L244.49 152.274" fill="#407CF1"/>
<path d="M209.937 110.222L225.715 146.117L233.69 109.851C233.69 109.851 231.479 109.723 228.319 109.602C226.571 109.538 224.531 116.45 222.42 116.414C221.065 116.414 219.688 109.402 218.325 109.409C216.606 109.409 214.93 109.409 213.403 109.523C212.077 109.595 210.914 110.13 209.937 110.222Z" fill="#FAFAFA"/>
<path d="M212.904 110.558V107.263C212.904 107.263 222.306 107.391 222.47 114.917C222.47 114.917 223.804 107.498 231.393 107.263L231.878 109.788L229.738 118.44L224.26 122.085H216.877L213.824 118.069L212.904 110.558Z" fill="#FAFAFA"/>
<path d="M225.58 147.074C225.593 146.937 225.625 146.803 225.672 146.674C225.792 146.295 225.945 145.928 226.129 145.576C226.433 145.023 226.807 144.513 227.242 144.056C227.741 143.514 228.34 142.943 228.946 142.266C230.456 140.749 231.774 139.053 232.87 137.215C233.466 136.116 233.81 134.898 233.875 133.649C233.972 132.312 233.584 130.986 232.784 129.911L232.534 129.59H232.948C233.107 129.608 233.267 129.608 233.426 129.59C234.083 129.454 234.669 129.084 235.074 128.549C235.478 128.023 235.736 127.401 235.823 126.744C235.92 125.462 235.822 124.173 235.53 122.921C235.124 120.467 234.753 118.255 234.446 116.379C234.139 114.503 233.918 113.062 233.733 111.971C233.669 111.479 233.612 111.087 233.562 110.766C233.537 110.627 233.525 110.486 233.526 110.345C233.579 110.478 233.617 110.617 233.64 110.758C233.697 111.065 233.783 111.472 233.875 111.943C234.082 113.034 234.361 114.518 234.696 116.337L235.859 122.856C236.172 124.146 236.278 125.478 236.172 126.801C236.082 127.522 235.799 128.204 235.352 128.777C234.894 129.388 234.226 129.808 233.476 129.954C233.289 129.975 233.1 129.975 232.913 129.954L233.069 129.654C233.926 130.797 234.339 132.211 234.232 133.635C234.161 134.938 233.795 136.209 233.162 137.351C232.04 139.206 230.686 140.91 229.132 142.423C228.504 143.093 227.891 143.657 227.384 144.177C226.948 144.606 226.565 145.085 226.243 145.604C225.751 146.524 225.63 147.088 225.58 147.074Z" fill="#263238"/>
<path d="M225.58 146.766C225.468 146.67 225.37 146.559 225.287 146.438L224.481 145.475C223.768 144.64 222.748 143.456 221.442 142.015C220.137 140.574 218.589 138.855 216.998 136.801C216.14 135.744 215.4 134.596 214.794 133.377C214.132 132.017 214.037 130.449 214.53 129.019C214.609 128.826 214.702 128.64 214.809 128.462L214.901 128.733C213.53 128.238 212.311 127.395 211.363 126.287C210.489 125.275 209.803 124.116 209.337 122.863C208.588 120.746 208.289 118.496 208.46 116.257C208.554 114.765 208.733 113.279 208.995 111.806C209.088 111.321 209.159 110.929 209.223 110.615C209.238 110.473 209.272 110.334 209.323 110.201C209.339 110.343 209.339 110.487 209.323 110.629C209.28 110.943 209.23 111.342 209.166 111.828C209.038 112.876 208.817 114.388 208.752 116.272C208.616 118.469 208.932 120.671 209.68 122.741C210.141 123.952 210.813 125.073 211.663 126.051C212.568 127.103 213.727 127.906 215.03 128.384L215.237 128.455L215.122 128.655C215.031 128.817 214.947 128.983 214.873 129.154C214.419 130.493 214.511 131.956 215.13 133.227C215.715 134.426 216.432 135.555 217.269 136.594C218.81 138.641 220.358 140.367 221.635 141.837C222.912 143.306 223.925 144.519 224.588 145.403C224.923 145.839 225.173 146.174 225.337 146.416C225.431 146.524 225.512 146.641 225.58 146.766Z" fill="#263238"/>
<path d="M225.409 152.544C225.248 151.479 225.212 150.4 225.302 149.327C225.274 148.252 225.364 147.178 225.573 146.124C225.761 148.263 225.706 150.417 225.409 152.544Z" fill="#263238"/>
<path d="M202.696 145.932C202.773 145.514 202.875 145.102 203.003 144.698C203.21 143.906 203.51 142.757 203.795 141.324C204.537 137.591 204.825 133.783 204.651 129.982C204.589 127.894 204.307 125.819 203.809 123.79C203.406 122.138 202.649 120.592 201.591 119.261C200.876 118.367 199.994 117.621 198.994 117.064C198.281 116.678 197.832 116.557 197.846 116.521C197.955 116.534 198.063 116.558 198.167 116.593C198.473 116.681 198.772 116.795 199.058 116.935C200.111 117.449 201.045 118.178 201.798 119.075C202.906 120.422 203.707 121.995 204.144 123.683C204.664 125.735 204.958 127.838 205.022 129.953C205.202 133.784 204.876 137.621 204.052 141.366C203.731 142.793 203.395 143.941 203.146 144.726C203.017 145.111 202.903 145.439 202.832 145.618C202.761 145.796 202.711 145.974 202.696 145.932Z" fill="#263238"/>
<path d="M243.513 140.118C243.466 139.723 243.449 139.324 243.463 138.927C243.463 138.156 243.463 137.051 243.391 135.681C243.268 132.117 242.957 128.562 242.457 125.031C241.762 120.345 240.759 115.711 239.454 111.157L239.404 110.972L239.546 111.086C239.803 111.265 240.042 111.468 240.26 111.692C239.986 111.547 239.726 111.378 239.482 111.186L239.582 111.121C241.084 115.633 242.171 120.272 242.828 124.981C243.337 128.526 243.616 132.1 243.662 135.681C243.662 137.058 243.662 138.171 243.612 138.934C243.613 139.331 243.58 139.727 243.513 140.118Z" fill="#263238"/>
<path d="M220.722 110.651C220.722 110.686 220.544 110.651 220.301 110.843C219.984 111.115 219.739 111.46 219.588 111.849C218.908 113.145 218.485 114.559 218.339 116.015L218.289 116.479L218.004 116.101L217.491 115.387C216.299 113.839 215.129 112.534 214.266 111.564C213.769 111.081 213.309 110.561 212.89 110.009C213.461 110.409 213.988 110.871 214.459 111.385C215.651 112.567 216.761 113.828 217.783 115.159L218.304 115.872L217.968 115.958C218.135 114.46 218.622 113.015 219.395 111.721C219.594 111.306 219.906 110.955 220.294 110.708C220.529 110.572 220.729 110.637 220.722 110.651Z" fill="#263238"/>
<path d="M231.757 109.945C231.39 110.565 230.967 111.15 230.495 111.693C229.681 112.749 228.533 114.19 227.249 115.766L226.571 116.593L226.257 116.979V116.479C226.264 115.66 226.205 114.842 226.079 114.033C225.973 113.394 225.746 112.781 225.409 112.228C225.08 111.735 224.665 111.307 224.182 110.965C224.347 110.993 224.503 111.059 224.638 111.158C225.032 111.395 225.37 111.714 225.63 112.092C226.017 112.66 226.284 113.301 226.414 113.976C226.567 114.799 226.643 115.635 226.643 116.472L226.314 116.365L226.992 115.531C228.276 113.954 229.453 112.542 230.323 111.529C230.755 110.961 231.234 110.431 231.757 109.945Z" fill="#263238"/>
<path d="M225.266 145.261C225.179 144.869 225.122 144.471 225.094 144.07C225.002 143.235 224.888 142.144 224.745 140.817C224.467 138.064 224.117 134.262 223.746 130.06C223.375 125.859 223.033 122.057 222.848 119.296C222.755 117.97 222.683 116.871 222.619 116.037C222.585 115.635 222.585 115.232 222.619 114.831C222.707 115.223 222.766 115.622 222.798 116.022C222.883 116.857 222.997 117.948 223.14 119.275C223.418 122.028 223.775 125.83 224.146 130.032C224.517 134.233 224.859 138.035 225.037 140.789C225.13 142.123 225.209 143.221 225.266 144.056C225.3 144.457 225.3 144.86 225.266 145.261Z" fill="#263238"/>
<path d="M225.287 121.386C225.287 121.351 225.551 121.172 225.936 121.429C226.047 121.505 226.138 121.606 226.203 121.724C226.267 121.842 226.303 121.973 226.307 122.107C226.291 122.276 226.226 122.436 226.12 122.569C226.013 122.701 225.871 122.8 225.709 122.852C225.548 122.904 225.374 122.908 225.211 122.863C225.047 122.818 224.9 122.726 224.788 122.599C224.712 122.489 224.663 122.362 224.646 122.23C224.628 122.097 224.643 121.962 224.688 121.836C224.852 121.401 225.194 121.372 225.187 121.415C225.18 121.458 224.995 121.579 224.945 121.9C224.928 121.984 224.929 122.071 224.949 122.155C224.969 122.239 225.006 122.317 225.059 122.385C225.127 122.455 225.213 122.504 225.308 122.526C225.403 122.547 225.503 122.541 225.594 122.506C225.689 122.481 225.775 122.428 225.841 122.355C225.907 122.281 225.95 122.19 225.965 122.093C225.966 122.007 225.95 121.923 225.917 121.844C225.884 121.765 225.834 121.695 225.772 121.636C225.537 121.401 225.294 121.444 225.287 121.386Z" fill="#263238"/>
<path d="M226.657 130.282C226.657 130.239 226.971 130.125 227.292 130.467C227.387 130.566 227.456 130.686 227.493 130.818C227.531 130.95 227.535 131.089 227.506 131.223C227.455 131.392 227.351 131.54 227.21 131.645C227.069 131.751 226.897 131.808 226.721 131.808C226.546 131.824 226.37 131.783 226.221 131.69C226.072 131.598 225.957 131.459 225.894 131.294C225.851 131.163 225.842 131.023 225.867 130.888C225.892 130.752 225.95 130.625 226.036 130.517C226.329 130.153 226.678 130.239 226.65 130.282C226.621 130.324 226.407 130.367 226.257 130.667C226.214 130.743 226.187 130.828 226.18 130.915C226.172 131.003 226.184 131.091 226.215 131.173C226.259 131.263 226.331 131.336 226.419 131.383C226.507 131.43 226.607 131.449 226.707 131.437C226.807 131.44 226.906 131.412 226.99 131.358C227.074 131.303 227.14 131.223 227.178 131.13C227.198 131.046 227.201 130.958 227.187 130.872C227.172 130.786 227.14 130.704 227.092 130.631C226.906 130.317 226.657 130.282 226.657 130.282Z" fill="#263238"/>
<g opacity="0.3">
<path d="M209.009 110.651C207.675 115.395 206.413 120.766 208.895 125.025C209.609 126.309 210.693 127.4 211.392 128.713C212.597 130.96 212.676 133.627 213.425 136.06C214.93 140.989 220.308 145.782 225.409 146.531C222.776 143.329 218.703 139.156 216.278 135.525C215.507 134.578 214.939 133.483 214.609 132.308C214.309 130.988 214.088 129.59 214.966 128.556C211.556 128.028 209.616 124.504 209.002 121.109C208.435 117.695 208.579 114.2 209.423 110.844" fill="black"/>
</g>
<g opacity="0.3">
<path d="M243.655 135.882C242.806 140.975 243.377 147.651 246.508 151.76C247.657 146.168 247.086 138.856 243.655 134.27" fill="black"/>
</g>
<path d="M160.297 73.4297H76.4534V213.511H160.297V73.4297Z" fill="#F5F5F5"/>
<path d="M98.6947 155.918L99.5935 157.737L101.605 158.029L100.15 159.442L100.492 161.446L98.6947 160.505L96.8971 161.446L97.2467 159.442L95.7915 158.029L97.7959 157.737L98.6947 155.918Z" fill="#407CF1"/>
<path d="M108.681 155.918L109.58 157.737L111.592 158.029L110.137 159.442L110.479 161.446L108.681 160.505L106.884 161.446L107.226 159.442L105.771 158.029L107.783 157.737L108.681 155.918Z" fill="#407CF1"/>
<path d="M118.661 155.918L119.559 157.737L121.571 158.029L120.116 159.442L120.458 161.446L118.661 160.505L116.87 161.446L117.212 159.442L115.757 158.029L117.762 157.737L118.661 155.918Z" fill="#407CF1"/>
<path d="M128.647 155.918L129.546 157.737L131.557 158.029L130.102 159.442L130.444 161.446L128.647 160.505L126.849 161.446L127.192 159.442L125.737 158.029L127.748 157.737L128.647 155.918Z" fill="#407CF1"/>
<path d="M138.626 155.918L139.525 157.737L141.537 158.029L140.082 159.442L140.424 161.446L138.626 160.505L136.829 161.446L137.178 159.442L135.723 158.029L137.735 157.737L138.626 155.918Z" fill="#407CF1"/>
<path d="M114.951 172.367C114.951 172.467 108.589 172.553 100.735 172.553C92.8813 172.553 86.5327 172.438 86.5327 172.367C86.5327 172.296 92.9026 172.182 100.749 172.182C108.596 172.182 114.951 172.232 114.951 172.367Z" fill="#407CF1"/>
<path d="M150.681 178.509C150.681 178.609 136.486 178.694 118.974 178.694C101.462 178.694 87.2673 178.609 87.2673 178.509C87.2673 178.409 101.462 178.323 118.974 178.323C136.486 178.323 150.681 178.409 150.681 178.509Z" fill="#263238"/>
<path d="M150.681 183.816C150.681 183.915 136.486 184.001 118.974 184.001C101.462 184.001 87.2673 183.915 87.2673 183.816C87.2673 183.716 101.462 183.623 118.974 183.623C136.486 183.623 150.681 183.709 150.681 183.816Z" fill="#263238"/>
<path d="M150.681 189.116C150.681 189.216 136.486 189.302 118.974 189.302C101.462 189.302 87.2673 189.216 87.2673 189.116C87.2673 189.016 101.462 188.931 118.974 188.931C136.486 188.931 150.681 189.016 150.681 189.116Z" fill="#263238"/>
<path d="M150.681 194.423C150.681 194.523 136.486 194.608 118.974 194.608C101.462 194.608 87.2673 194.523 87.2673 194.423C87.2673 194.323 101.462 194.237 118.974 194.237C136.486 194.237 150.681 194.316 150.681 194.423Z" fill="#263238"/>
<path d="M150.681 199.723C150.681 199.83 136.486 199.908 118.974 199.908C101.463 199.908 87.2461 199.83 87.2461 199.723C87.2461 199.616 101.441 199.537 118.953 199.537C136.465 199.537 150.681 199.623 150.681 199.723Z" fill="#263238"/>
<path d="M154.063 80.542H81.8391V149.877H154.063V80.542Z" fill="#E0E0E0"/>
<path d="M122.384 114.902C122.384 116.707 122.548 117.755 122.562 119.574C122.535 119.798 122.557 120.025 122.624 120.241C122.692 120.456 122.805 120.654 122.955 120.823C123.112 120.93 123.296 120.991 123.486 121C123.676 121.009 123.865 120.965 124.032 120.872C124.362 120.682 124.648 120.424 124.874 120.116C126.875 117.651 128.081 114.636 128.333 111.471C128.36 111.338 128.361 111.201 128.336 111.067C128.31 110.934 128.258 110.807 128.183 110.693C127.898 110.365 127.37 110.487 126.978 110.693C125.025 111.57 123.412 113.06 122.384 114.938" fill="#263238"/>
<path d="M110.258 93.3311L110.293 95.1286L110.657 122.092C110.692 122.857 110.878 123.608 111.205 124.3C111.532 124.993 111.993 125.613 112.561 126.126C113.13 126.639 113.795 127.034 114.517 127.288C115.24 127.542 116.006 127.65 116.77 127.606C120.158 127.535 122.905 124.917 122.919 121.75C122.919 118.433 122.997 114.937 122.997 114.937C122.997 114.937 127.277 114.224 128.162 108.653C128.597 105.878 128.461 101.327 128.226 97.611C128.177 96.8176 127.967 96.0424 127.61 95.3321C127.253 94.6219 126.756 93.9912 126.149 93.478C125.542 92.9649 124.837 92.5799 124.077 92.3462C123.318 92.1126 122.518 92.0351 121.728 92.1184L110.258 93.3311Z" fill="#FFBE9D"/>
<path d="M126.079 100.779C126.079 100.968 126.004 101.149 125.87 101.283C125.737 101.417 125.555 101.492 125.366 101.492C125.188 101.493 125.017 101.428 124.885 101.309C124.753 101.19 124.67 101.027 124.653 100.85C124.653 100.661 124.728 100.479 124.862 100.346C124.995 100.212 125.177 100.137 125.366 100.137C125.543 100.136 125.715 100.201 125.847 100.32C125.979 100.439 126.061 100.602 126.079 100.779Z" fill="#263238"/>
<path d="M127.242 99.9717C127.149 100.072 126.607 99.665 125.815 99.6721C125.023 99.6792 124.481 100.057 124.388 99.9646C124.296 99.8718 124.431 99.7506 124.681 99.5722C125.014 99.3427 125.41 99.2207 125.815 99.2227C126.215 99.2196 126.605 99.3446 126.928 99.5794C127.192 99.7648 127.284 99.936 127.242 99.9717Z" fill="#263238"/>
<path d="M118.632 100.779C118.632 100.968 118.557 101.149 118.423 101.283C118.29 101.417 118.108 101.492 117.919 101.492C117.741 101.493 117.57 101.428 117.438 101.309C117.306 101.19 117.223 101.027 117.206 100.85C117.206 100.661 117.281 100.479 117.414 100.346C117.548 100.212 117.73 100.137 117.919 100.137C118.096 100.136 118.268 100.201 118.4 100.32C118.532 100.439 118.614 100.602 118.632 100.779Z" fill="#263238"/>
<path d="M119.674 100.122C119.581 100.215 119.039 99.8085 118.247 99.8156C117.455 99.8228 116.913 100.201 116.82 100.108C116.728 100.015 116.863 99.8941 117.113 99.7158C117.446 99.4862 117.842 99.3642 118.247 99.3662C118.647 99.3652 119.037 99.4927 119.36 99.73C119.631 99.9084 119.716 100.08 119.674 100.122Z" fill="#263238"/>
<path d="M122.463 105.829C122.87 105.701 123.292 105.625 123.718 105.6C123.911 105.6 124.096 105.543 124.132 105.408C124.147 105.207 124.102 105.006 124.003 104.83C123.818 104.352 123.625 103.853 123.418 103.332C122.881 102.063 122.444 100.754 122.113 99.416C122.756 100.637 123.297 101.909 123.732 103.218L124.289 104.723C124.41 104.961 124.445 105.233 124.389 105.493C124.363 105.564 124.32 105.627 124.264 105.676C124.208 105.726 124.14 105.761 124.068 105.779C123.959 105.811 123.846 105.828 123.732 105.829C123.311 105.883 122.884 105.883 122.463 105.829Z" fill="#263238"/>
<path d="M122.997 114.937C120.372 114.978 117.786 114.289 115.529 112.947C115.529 112.947 117.341 116.778 122.919 116.257L122.997 114.937Z" fill="#EB996E"/>
<path d="M122.142 107.683C121.992 107.501 121.8 107.359 121.582 107.269C121.364 107.18 121.128 107.146 120.893 107.17C120.724 107.186 120.56 107.236 120.41 107.317C120.261 107.398 120.129 107.508 120.023 107.64C119.918 107.767 119.855 107.923 119.844 108.087C119.832 108.25 119.873 108.414 119.959 108.553C120.082 108.693 120.245 108.792 120.426 108.838C120.606 108.884 120.797 108.874 120.972 108.81C121.335 108.681 121.669 108.483 121.956 108.225C122.04 108.16 122.115 108.083 122.177 107.997C122.205 107.955 122.221 107.905 122.221 107.854C122.221 107.804 122.205 107.754 122.177 107.712" fill="#EB996E"/>
<path d="M120.202 106.364C120.323 106.364 120.33 107.192 121.043 107.791C121.757 108.39 122.648 108.29 122.655 108.412C122.662 108.533 122.456 108.569 122.078 108.583C121.589 108.59 121.114 108.423 120.737 108.112C120.37 107.817 120.134 107.389 120.08 106.921C120.059 106.564 120.144 106.357 120.202 106.364Z" fill="#263238"/>
<path d="M118.632 92.868C119.223 93.0411 119.73 93.4242 120.059 93.9451C120.378 94.4588 120.736 94.9477 121.129 95.4074C121.613 95.8856 122.236 96.1982 122.909 96.3008C123.581 96.4033 124.269 96.2903 124.874 95.9781C125.323 96.4132 125.915 96.8769 126.514 96.6914C126.684 96.6233 126.834 96.5128 126.948 96.3704C127.063 96.228 127.14 96.0586 127.171 95.8782C127.226 95.5139 127.171 95.1413 127.014 94.8083C126.429 93.4458 124.924 92.7182 123.447 92.4329C121.671 92.0904 119.835 92.2333 118.133 92.8466" fill="#263238"/>
<path d="M105.165 150.105C105.429 150.568 103.453 143.906 103.453 143.906L101.798 149.991L89.5144 150.083C89.5144 150.083 96.455 127.393 99.7505 124.226C104.03 120.088 112.119 119.867 112.119 119.867L124.581 120.067H124.859C127.362 120.376 129.749 121.301 131.808 122.757C133.866 124.213 135.532 126.156 136.658 128.413L144.925 149.848H134.004L131.679 143.521L132.456 149.848" fill="#263238"/>
<path d="M130.209 119.332C129.831 118.433 128.462 118.469 127.862 117.706C127.263 116.942 127.784 115.68 128.276 114.731C130.637 110.18 130.416 104.745 129.967 99.6514C129.781 97.4615 129.56 95.2289 128.611 93.2316C126.721 89.2798 122.149 86.1554 116.485 86.4122C111.856 86.5906 108.332 90.7635 105.828 94.6653C103.324 98.5672 101.99 104.652 102.811 109.238C103.224 111.521 105.664 113.283 105.236 115.558C104.951 116.985 103.453 118.711 103.745 120.145C104.145 122.1 106.984 122.777 108.646 123.89C110.3 125.108 111.848 126.464 113.275 127.942C114.713 129.419 116.446 130.576 118.361 131.337C120.308 131.993 122.641 131.872 124.21 130.567C126.8 128.427 126.55 124.197 128.904 121.814C129.589 121.108 130.602 120.295 130.209 119.332ZM126.557 94.6653C127.506 96.092 127.584 97.9395 127.805 99.6586C128.266 102.532 128.3 105.457 127.905 108.34C127.499 111.238 126.171 113.93 124.117 116.015C123.082 117.041 121.812 117.799 120.417 118.221C119.022 118.644 117.545 118.719 116.114 118.44C112.94 117.727 111.92 114.874 111.021 111.771C110.122 108.668 112.127 105.779 113.018 102.647C113.732 100.229 113.967 96.8196 115.529 94.8508C117.091 92.882 119.681 92.7465 120.444 92.7822C120.444 92.775 124.652 91.7978 126.557 94.6653Z" fill="#407CF1"/>
<g opacity="0.3">
<path d="M104.03 117.855C105.913 118.875 107.39 120.494 108.924 121.992C110.457 123.49 112.162 124.945 114.238 125.48C116.314 126.015 118.839 125.38 119.873 123.504C116.903 123.936 113.874 123.347 111.283 121.834C108.691 120.32 106.69 117.972 105.607 115.173" fill="black"/>
</g>
<g opacity="0.3">
<path d="M127.556 116.521C127.359 117.263 127.009 117.956 126.529 118.554C126.049 119.152 125.448 119.643 124.766 119.995C124.443 120.127 124.14 120.305 123.868 120.523C123.733 120.635 123.634 120.784 123.585 120.951C123.535 121.119 123.537 121.298 123.589 121.465C123.69 121.633 123.846 121.762 124.03 121.83C124.215 121.897 124.417 121.899 124.602 121.836C124.968 121.692 125.296 121.465 125.558 121.172C126.585 120.181 127.655 119.104 127.948 117.706" fill="black"/>
</g>
<path d="M388.632 150.276C389.966 144.661 386.496 139.028 380.881 137.693C375.266 136.358 369.633 139.828 368.298 145.443C366.963 151.059 370.433 156.692 376.048 158.027C381.663 159.361 387.297 155.891 388.632 150.276Z" fill="#E0E0E0"/>
<path d="M376.853 152.302C377.295 151.801 377.785 151.344 378.315 150.939C379.257 150.14 380.569 149.049 382.039 147.858V148.143L381.968 148.079C380.541 146.823 379.228 145.675 378.301 144.826C377.782 144.396 377.305 143.918 376.874 143.399C377.446 143.761 377.986 144.171 378.487 144.626C379.457 145.425 380.776 146.545 382.224 147.801L382.296 147.858L382.467 148.007L382.289 148.143C380.826 149.334 379.485 150.397 378.508 151.146C377.99 151.578 377.436 151.964 376.853 152.302Z" fill="#263238"/>
<path d="M81 150.666C82.3274 145.067 78.8652 139.453 73.2669 138.125C67.6686 136.798 62.0542 140.26 60.7268 145.859C59.3993 151.457 62.8616 157.071 68.4599 158.399C74.0582 159.726 79.6726 156.264 81 150.666Z" fill="#E0E0E0"/>
<path d="M72.9793 143.399C72.5299 143.893 72.0382 144.347 71.5099 144.755C70.5683 145.561 69.2629 146.652 67.7935 147.843V147.558L67.8719 147.622C69.2986 148.878 70.6111 150.026 71.5313 150.875C72.0507 151.305 72.5283 151.782 72.9579 152.302C72.3818 151.94 71.8399 151.527 71.3387 151.068C70.3685 150.276 69.0489 149.156 67.608 147.9L67.5295 147.836L67.3655 147.694L67.5367 147.551C69.0061 146.367 70.3471 145.304 71.3244 144.555C71.8368 144.116 72.3911 143.729 72.9793 143.399Z" fill="#263238"/>
<path d="M185.363 45.5745C171.359 53.0147 159.876 64.4401 152.365 78.406C144.854 92.372 141.653 108.251 143.166 124.037C144.68 139.822 150.839 154.804 160.867 167.089C170.894 179.373 184.339 188.409 199.501 193.053C211.829 196.824 224.885 197.564 237.56 195.211C250.236 192.858 262.156 187.48 272.309 179.536L339.882 264.064L350.218 255.825L282.075 170.584C290.152 161.802 296.158 151.32 299.651 139.911C300.5 137.14 301.2 134.326 301.748 131.479C304.594 116.624 303.181 101.267 297.671 87.1807C292.162 73.0944 282.781 60.8535 270.611 51.8712C258.442 42.8888 243.98 37.5313 228.896 36.4171C213.812 35.3029 198.72 38.4776 185.363 45.5745ZM242.578 52.3724C257.391 56.9064 270.174 66.4365 278.749 79.3388C287.323 92.2412 291.158 107.717 289.601 123.131C288.044 138.544 281.19 152.94 270.208 163.866C259.227 174.793 244.796 181.574 229.375 183.053C213.954 184.532 198.498 180.619 185.639 171.979C172.78 163.34 163.315 150.509 158.855 135.673C154.396 120.837 155.22 104.914 161.185 90.6168C167.15 76.3197 177.888 64.5333 191.569 57.2658C199.325 53.118 207.828 50.5498 216.583 49.7099C225.339 48.8699 234.174 49.7749 242.578 52.3724Z" fill="#455A64"/>
</svg>
